<svg width="12" height="12" viewBox="0 0 12 12" fill="none" xmlns="http://www.w3.org/2000/svg">
<g clip-path="url(#clip0_214_20895)">
<path d="M1.99999 0H3.49999C4.60455 0 5.49998 0.89543 5.49998 1.99999V3.49999C5.49998 4.60455 4.60455 5.49998 3.49999 5.49998H1.99999C0.89543 5.50001 0 4.60458 0 3.49999V1.99999C0 0.89543 0.89543 0 1.99999 0Z" fill="white"/>
<path d="M8.49999 0H9.99999C11.1046 0 12 0.89543 12 1.99999V3.49999C12 4.60455 11.1046 5.49998 9.99999 5.49998H8.49999C7.39543 5.49998 6.5 4.60455 6.5 3.49999V1.99999C6.49998 0.89543 7.39541 0 8.49999 0Z" fill="white"/>
<path d="M1.99999 6.5H3.49999C4.60455 6.5 5.49998 7.39543 5.49998 8.49999V9.99999C5.49998 11.1046 4.60455 12 3.49999 12H1.99999C0.89543 12 0 11.1046 0 10V8.50002C0 7.39543 0.89543 6.5 1.99999 6.5Z" fill="white"/>
<path d="M8.49999 6.5H9.99999C11.1046 6.5 12 7.39543 12 8.49999V9.99999C12 11.1046 11.1046 12 9.99999 12H8.49999C7.39543 12 6.5 11.1046 6.5 10V8.50002C6.49998 7.39543 7.39541 6.5 8.49999 6.5Z" fill="white"/>
</g>
<defs>
<clipPath id="clip0_214_20895">
<rect width="12" height="12" fill="white"/>
</clipPath>
</defs>
</svg>
