<svg width="15" height="16" viewBox="0 0 15 16" fill="none" xmlns="http://www.w3.org/2000/svg">
<g clip-path="url(#clip0_173_15448)">
<path d="M7.02531 15.5C6.82054 15.4993 6.61838 15.4541 6.43281 15.3675C6.12969 15.2325 5.88625 14.9916 5.74816 14.6899C5.61007 14.3882 5.58684 14.0464 5.68281 13.7288L6.65843 10.5H4.35968C4.06681 10.5004 3.77793 10.4321 3.51619 10.3007C3.25444 10.1693 3.02712 9.97844 2.85244 9.74336C2.67776 9.50829 2.56058 9.23556 2.51028 8.94704C2.45998 8.65851 2.47797 8.36222 2.56281 8.08191L4.45281 1.83191C4.56801 1.44533 4.80549 1.10655 5.12959 0.8664C5.45369 0.626253 5.84694 0.497699 6.25031 0.500031H8.55843C8.82078 0.500251 9.07917 0.563985 9.31153 0.685787C9.54389 0.80759 9.7433 0.983838 9.89273 1.19947C10.0422 1.4151 10.1371 1.66371 10.1696 1.92404C10.202 2.18437 10.171 2.44869 10.0791 2.69441L9.02718 5.50003H10.6253C10.966 5.5 11.3002 5.59279 11.5921 5.76841C11.884 5.94404 12.1225 6.19586 12.2821 6.49685C12.4416 6.79783 12.5162 7.1366 12.4977 7.47675C12.4792 7.81691 12.3684 8.14561 12.1772 8.42753L8.17718 14.865C8.05353 15.0587 7.88332 15.2183 7.6821 15.3292C7.48088 15.4401 7.25507 15.4989 7.02531 15.5ZM6.25031 1.75003C6.11609 1.7499 5.98539 1.79298 5.87756 1.8729C5.76972 1.95282 5.69048 2.06533 5.65156 2.19378L3.76156 8.44378C3.73326 8.53717 3.72722 8.63588 3.74392 8.73202C3.76063 8.82815 3.79961 8.91904 3.85775 8.99741C3.91588 9.07578 3.99156 9.13944 4.07872 9.18331C4.16588 9.22718 4.26211 9.25003 4.35968 9.25003H7.50031C7.59789 9.25003 7.69411 9.27288 7.78127 9.31675C7.86843 9.36062 7.94411 9.42428 8.00225 9.50265C8.06038 9.58102 8.09936 9.67191 8.11607 9.76805C8.13277 9.86418 8.12673 9.9629 8.09843 10.0563L6.88156 14.0825C6.87593 14.0973 6.87344 14.1132 6.87425 14.129C6.87506 14.1448 6.87915 14.1603 6.88626 14.1745C6.89337 14.1886 6.90335 14.2012 6.91556 14.2113C6.92777 14.2214 6.94194 14.2288 6.95718 14.2332C6.971 14.242 6.98652 14.2479 7.00274 14.2504C7.01896 14.2529 7.03553 14.2519 7.05136 14.2476C7.0672 14.2433 7.08197 14.2358 7.0947 14.2254C7.10744 14.2151 7.11786 14.2022 7.12531 14.1875L11.1253 7.75003C11.1953 7.65516 11.2369 7.54244 11.2456 7.42488C11.2542 7.30732 11.2294 7.18972 11.1741 7.08566C11.1228 6.98428 11.0443 6.89919 10.9473 6.83992C10.8504 6.78064 10.7389 6.74951 10.6253 6.75003H8.12531C8.02429 6.75009 7.92477 6.72567 7.83526 6.67886C7.74575 6.63204 7.66892 6.56423 7.61135 6.48122C7.55378 6.39822 7.51719 6.3025 7.50471 6.20226C7.49223 6.10202 7.50423 6.00024 7.53968 5.90566L8.90843 2.25566C8.92946 2.19907 8.93652 2.13824 8.929 2.07833C8.92148 2.01843 8.89962 1.96123 8.86526 1.91159C8.8309 1.86196 8.78506 1.82135 8.73164 1.79322C8.67822 1.76509 8.6188 1.75027 8.55843 1.75003H6.25031Z" fill="#FF1B1B"/>
</g>
<defs>
<clipPath id="clip0_173_15448">
<rect width="15" height="15" fill="white" transform="translate(0 0.5)"/>
</clipPath>
</defs>
</svg>
