<svg width="10" height="10" viewBox="0 0 10 10" fill="none" xmlns="http://www.w3.org/2000/svg">
<g clip-path="url(#clip0_25_25332)">
<path d="M7.91667 1.66667H7.45833C7.36163 1.19642 7.10576 0.773894 6.73385 0.470299C6.36195 0.166704 5.89675 0.000606052 5.41667 0L4.58333 0C4.10325 0.000606052 3.63805 0.166704 3.26615 0.470299C2.89424 0.773894 2.63837 1.19642 2.54167 1.66667H2.08333C1.531 1.66733 1.00148 1.88703 0.610925 2.27759C0.220367 2.66815 0.000661607 3.19767 0 3.75L0 5H10V3.75C9.99934 3.19767 9.77963 2.66815 9.38908 2.27759C8.99852 1.88703 8.469 1.66733 7.91667 1.66667ZM3.41 1.66667C3.49587 1.42379 3.65468 1.21337 3.86471 1.0642C4.07474 0.915035 4.32572 0.834401 4.58333 0.833333H5.41667C5.67427 0.834401 5.92526 0.915035 6.13529 1.0642C6.34532 1.21337 6.50413 1.42379 6.59 1.66667H3.41Z" fill="#32425F"/>
<path d="M5.41667 6.2487C5.41667 6.3592 5.37277 6.46519 5.29463 6.54333C5.21649 6.62147 5.11051 6.66536 5 6.66536C4.88949 6.66536 4.78351 6.62147 4.70537 6.54333C4.62723 6.46519 4.58333 6.3592 4.58333 6.2487V5.83203H0V7.91536C0.000661607 8.4677 0.220367 8.99722 0.610925 9.38777C1.00148 9.77833 1.531 9.99804 2.08333 9.9987H7.91667C8.469 9.99804 8.99852 9.77833 9.38908 9.38777C9.77963 8.99722 9.99934 8.4677 10 7.91536V5.83203H5.41667V6.2487Z" fill="#32425F"/>
</g>
<defs>
<clipPath id="clip0_25_25332">
<rect width="10" height="10" fill="white"/>
</clipPath>
</defs>
</svg>
