<svg width="15" height="16" viewBox="0 0 15 16" fill="none" xmlns="http://www.w3.org/2000/svg">
<g clip-path="url(#clip0_173_15381)">
<path d="M10.3125 0.5C7.68375 0.5 5.625 1.73563 5.625 3.3125V4.92937C5.32312 4.89375 5.00937 4.875 4.6875 4.875C2.05875 4.875 0 6.11062 0 7.6875V12.6875C0 14.2644 2.05875 15.5 4.6875 15.5C6.81687 15.5 8.5725 14.6894 9.1625 13.5431C9.53625 13.5975 9.92125 13.625 10.3125 13.625C12.9412 13.625 15 12.3894 15 10.8125V3.3125C15 1.73563 12.9412 0.5 10.3125 0.5ZM13.75 8.3125C13.75 9.05 12.28 9.875 10.3125 9.875C9.9925 9.875 9.67875 9.85312 9.375 9.81062V8.57062C9.68125 8.60625 9.995 8.625 10.3125 8.625C11.6837 8.625 12.9 8.28875 13.75 7.74312V8.3125ZM1.25 9.61812C2.1 10.1637 3.31625 10.5 4.6875 10.5C6.05875 10.5 7.275 10.1637 8.125 9.61812V10.1875C8.125 10.925 6.655 11.75 4.6875 11.75C2.72 11.75 1.25 10.925 1.25 10.1875V9.61812ZM13.75 5.8125C13.75 6.55 12.28 7.375 10.3125 7.375C9.97812 7.375 9.65 7.35125 9.33375 7.305C9.21312 6.75062 8.83375 6.2525 8.2675 5.85312C8.8825 6.02812 9.575 6.125 10.3125 6.125C11.6837 6.125 12.9 5.78875 13.75 5.24313V5.8125ZM10.3125 1.75C12.28 1.75 13.75 2.575 13.75 3.3125C13.75 4.05 12.28 4.875 10.3125 4.875C8.345 4.875 6.875 4.05 6.875 3.3125C6.875 2.575 8.345 1.75 10.3125 1.75ZM4.6875 6.125C6.655 6.125 8.125 6.95 8.125 7.6875C8.125 8.425 6.655 9.25 4.6875 9.25C2.72 9.25 1.25 8.425 1.25 7.6875C1.25 6.95 2.72 6.125 4.6875 6.125ZM4.6875 14.25C2.72 14.25 1.25 13.425 1.25 12.6875V12.1181C2.1 12.6637 3.31625 13 4.6875 13C6.05875 13 7.275 12.6637 8.125 12.1181V12.6875C8.125 13.425 6.655 14.25 4.6875 14.25ZM10.3125 12.375C9.9925 12.375 9.67875 12.3531 9.375 12.3106V11.0706C9.68125 11.1063 9.995 11.125 10.3125 11.125C11.6837 11.125 12.9 10.7887 13.75 10.2431V10.8125C13.75 11.55 12.28 12.375 10.3125 12.375Z" fill="#FFE342"/>
</g>
<defs>
<clipPath id="clip0_173_15381">
<rect width="15" height="15" fill="white" transform="translate(0 0.5)"/>
</clipPath>
</defs>
</svg>
