<svg width="20" height="20" viewBox="0 0 20 20" fill="none" xmlns="http://www.w3.org/2000/svg">
<rect width="20" height="20" fill="white"/>
<path d="M3.54709 13.8279C2.61653 12.2579 2.29103 10.4023 2.6317 8.60931C2.97237 6.81633 3.95578 5.20936 5.39731 4.09007C6.83883 2.97078 8.63934 2.41615 10.4608 2.5303C12.2823 2.64446 13.9995 3.41954 15.29 4.71004C16.5805 6.00055 17.3556 7.71773 17.4697 9.53921C17.5839 11.3607 17.0292 13.1612 15.91 14.6027C14.7907 16.0442 13.1837 17.0277 11.3907 17.3683C9.59775 17.709 7.74208 17.3835 6.17209 16.4529V16.4529L3.57834 17.1873C3.47207 17.2184 3.3594 17.2203 3.25213 17.1929C3.14487 17.1654 3.04696 17.1097 2.96866 17.0314C2.89037 16.9531 2.83459 16.8552 2.80715 16.7479C2.77971 16.6406 2.78163 16.528 2.81271 16.4217L3.54709 13.8279Z" stroke="#006CEE" stroke-width="2" stroke-linecap="round" stroke-linejoin="round"/>
<path d="M10 10.7812C10.4315 10.7812 10.7812 10.4315 10.7812 10C10.7812 9.56853 10.4315 9.21875 10 9.21875C9.56853 9.21875 9.21875 9.56853 9.21875 10C9.21875 10.4315 9.56853 10.7812 10 10.7812Z" fill="#006CEE"/>
<path d="M13.75 10.7812C14.1815 10.7812 14.5312 10.4315 14.5312 10C14.5312 9.56853 14.1815 9.21875 13.75 9.21875C13.3185 9.21875 12.9688 9.56853 12.9688 10C12.9688 10.4315 13.3185 10.7812 13.75 10.7812Z" fill="#006CEE"/>
<path d="M6.25 10.7812C6.68147 10.7812 7.03125 10.4315 7.03125 10C7.03125 9.56853 6.68147 9.21875 6.25 9.21875C5.81853 9.21875 5.46875 9.56853 5.46875 10C5.46875 10.4315 5.81853 10.7812 6.25 10.7812Z" fill="#006CEE"/>
</svg>
