<svg width="20" height="21" viewBox="0 0 20 21" fill="none" xmlns="http://www.w3.org/2000/svg">
<path fill-rule="evenodd" clip-rule="evenodd" d="M13.9802 8.1073C14.2661 8.407 14.2549 8.88175 13.9552 9.16766L9.36927 13.5427C9.07931 13.8193 8.62312 13.8191 8.3334 13.5422L6.04434 11.3547C5.74488 11.0685 5.7341 10.5938 6.02028 10.2943C6.30645 9.99488 6.7812 9.9841 7.08067 10.2703L8.85201 11.963L12.9198 8.08234C13.2195 7.79642 13.6942 7.80759 13.9802 8.1073Z" fill="#24CA8E"/>
<path fill-rule="evenodd" clip-rule="evenodd" d="M10 3.75C6.27208 3.75 3.25 6.77208 3.25 10.5C3.25 14.2279 6.27208 17.25 10 17.25C13.7279 17.25 16.75 14.2279 16.75 10.5C16.75 6.77208 13.7279 3.75 10 3.75ZM1.75 10.5C1.75 5.94365 5.44365 2.25 10 2.25C14.5563 2.25 18.25 5.94365 18.25 10.5C18.25 15.0563 14.5563 18.75 10 18.75C5.44365 18.75 1.75 15.0563 1.75 10.5Z" fill="#24CA8E"/>
</svg>
