<svg width="15" height="14" viewBox="0 0 15 14" fill="none" xmlns="http://www.w3.org/2000/svg">
<g clip-path="url(#clip0_577_29093)">
<path d="M14.2288 1.53797C14.0004 1.42917 13.7488 1.40057 13.5062 1.45581C13.2636 1.51106 13.0408 1.64765 12.8662 1.8482L11.25 3.6967L8.38375 0.418575C8.14934 0.150561 7.83145 0 7.5 0C7.16854 0 6.85066 0.150561 6.61625 0.418575L3.75 3.6967L2.13375 1.8482C1.95894 1.64832 1.73623 1.51221 1.49379 1.45708C1.25135 1.40194 1.00006 1.43025 0.771682 1.53843C0.543307 1.64661 0.348103 1.8298 0.210748 2.06485C0.0733926 2.29989 5.27804e-05 2.57623 0 2.85894L0 10.4259C0.000992411 11.3735 0.330551 12.2819 0.916387 12.9519C1.50222 13.622 2.2965 13.9989 3.125 14H11.875C12.7035 13.9989 13.4978 13.622 14.0836 12.9519C14.6694 12.2819 14.999 11.3735 15 10.4259V2.85894C15.0001 2.57621 14.9268 2.29981 14.7895 2.06468C14.6523 1.82955 14.4571 1.64626 14.2288 1.53797Z" fill="#7A7FAA"/>
</g>
<defs>
<clipPath id="clip0_577_29093">
<rect width="15" height="14" fill="white"/>
</clipPath>
</defs>
</svg>
