<svg width="15" height="16" viewBox="0 0 15 16" fill="none" xmlns="http://www.w3.org/2000/svg">
<path fill-rule="evenodd" clip-rule="evenodd" d="M13.9277 9.69922L13.2246 4.07422C13.1806 3.73501 13.015 3.4233 12.7585 3.19699C12.502 2.97069 12.1721 2.84517 11.8301 2.84375H1.875C1.62636 2.84375 1.3879 2.94252 1.21209 3.11834C1.03627 3.29415 0.9375 3.53261 0.9375 3.78125V8.9375C0.9375 9.18614 1.03627 9.4246 1.21209 9.60041C1.3879 9.77623 1.62636 9.875 1.875 9.875H4.39453L6.60938 14.3047C6.64973 14.3819 6.7103 14.4466 6.78461 14.492C6.85891 14.5374 6.94417 14.5618 7.03125 14.5625C7.65238 14.561 8.24762 14.3135 8.68682 13.8743C9.12603 13.4351 9.37345 12.8399 9.375 12.2188V11.2812H12.5332C12.7329 11.2821 12.9306 11.2402 13.1128 11.1584C13.295 11.0766 13.4576 10.9567 13.5897 10.8069C13.7218 10.657 13.8203 10.4807 13.8786 10.2896C13.9369 10.0986 13.9536 9.89728 13.9277 9.69922ZM8.175 12.217V10.0813H12.5383C12.5669 10.0814 12.5952 10.0754 12.6213 10.0637C12.6473 10.052 12.6706 10.0348 12.6895 10.0134C12.7084 9.99194 12.7225 9.9667 12.7308 9.93936C12.7392 9.91203 12.7416 9.88322 12.7379 9.85488L12.737 9.84806L12.0346 4.22857C12.0345 4.22803 12.0344 4.22749 12.0344 4.22696C12.0274 4.17663 12.0027 4.13043 11.9646 4.0968C11.9264 4.06311 11.8774 4.04429 11.8265 4.04375H5.41875V9.24016L7.44104 13.2847C7.58862 13.2275 7.72422 13.1399 7.83829 13.0258C8.05289 12.8112 8.17391 12.5205 8.175 12.217ZM4.21875 3.78125H1.875V8.9375H4.21875V3.78125Z" fill="#006CEE"/>
</svg>
