<svg width="12" height="12" viewBox="0 0 12 12" fill="none" xmlns="http://www.w3.org/2000/svg">
<path d="M7.99268 6.35007V5.00009C7.99268 4.86748 8.04538 4.74031 8.13918 4.64654C8.23298 4.55278 8.36021 4.5001 8.49287 4.5001H8.99306C9.12572 4.5001 9.25295 4.44742 9.34675 4.35365C9.44055 4.25989 9.49325 4.13271 9.49325 4.0001V3.50011C9.49325 3.3675 9.54595 3.24033 9.63976 3.14656C9.73356 3.05279 9.86079 3.00012 9.99345 3.00012H11.3365C11.434 2.99964 11.5294 2.9711 11.6112 2.9179C11.693 2.86471 11.7577 2.7891 11.7976 2.70012C11.9666 2.32821 12.0316 1.91751 11.9857 1.51164C11.9286 1.08906 11.7186 0.702005 11.3956 0.423545C11.0725 0.145085 10.6586 -0.00552152 10.232 0.000154797C9.63018 0.000192846 9.05298 0.239217 8.62742 0.664646L4.6719 4.6176C4.0343 4.45202 3.36396 4.46031 2.73066 4.6416C1.85935 4.88788 1.10656 5.44087 0.611192 6.19853C0.115826 6.95618 -0.0886834 7.86736 0.035401 8.76394C0.159485 9.66051 0.60379 10.482 1.28633 11.0767C1.96887 11.6715 2.84357 11.9994 3.74905 12C3.88003 11.9999 4.01092 11.993 4.1412 11.9795C4.88656 11.8984 5.59074 11.5967 6.16354 11.1131C6.73635 10.6295 7.15171 9.98603 7.35643 9.26504C7.53837 8.63221 7.54649 7.9621 7.37994 7.32506L7.70507 7.00006C7.87796 6.82635 7.98041 6.59481 7.99268 6.35007ZM2.74616 10C2.59777 10 2.45271 9.95604 2.32932 9.87363C2.20594 9.79122 2.10977 9.67409 2.05299 9.53704C1.9962 9.4 1.98134 9.2492 2.01029 9.10372C2.03924 8.95824 2.1107 8.8246 2.21563 8.71971C2.32056 8.61482 2.45425 8.54339 2.59979 8.51446C2.74533 8.48552 2.89619 8.50037 3.03328 8.55713C3.17038 8.6139 3.28756 8.71003 3.37 8.83336C3.45245 8.9567 3.49645 9.1017 3.49645 9.25004C3.49645 9.44895 3.4174 9.63971 3.2767 9.78036C3.13599 9.92101 2.94515 10 2.74616 10Z" fill="#7A7FAA"/>
</svg>
