<svg width="16" height="17" viewBox="0 0 16 17" fill="none" xmlns="http://www.w3.org/2000/svg">
<path d="M13.4882 7.88909C13.4697 7.80849 13.4314 7.73376 13.3769 7.67159C13.3223 7.60941 13.2532 7.56174 13.1757 7.53284L9.57575 6.18284L10.4882 1.60159C10.5092 1.49547 10.4957 1.38542 10.4496 1.28756C10.4034 1.18971 10.3272 1.1092 10.232 1.05784C10.1359 1.00669 10.0255 0.988772 9.91811 1.00686C9.81073 1.02494 9.71233 1.07802 9.63825 1.15784L2.63825 8.65784C2.58089 8.71735 2.53939 8.7903 2.51755 8.87002C2.49571 8.94973 2.49423 9.03365 2.51325 9.11409C2.53281 9.19424 2.57144 9.26848 2.62585 9.3305C2.68025 9.39252 2.74883 9.44049 2.82575 9.47034L6.42575 10.8203L5.51325 15.4016C5.49226 15.5077 5.50582 15.6178 5.55193 15.7156C5.59805 15.8135 5.67429 15.894 5.7695 15.9453C5.84126 15.9815 5.92037 16.0008 6.00075 16.0016C6.06867 16.0019 6.13592 15.9881 6.19829 15.9613C6.26066 15.9344 6.31682 15.8949 6.36325 15.8453L13.3632 8.34534C13.4206 8.28583 13.4621 8.21287 13.4839 8.13316C13.5058 8.05344 13.5073 7.96952 13.4882 7.88909Z" fill="white"/>
</svg>
