<svg width="25" height="24" viewBox="0 0 25 24" fill="none" xmlns="http://www.w3.org/2000/svg">
<path d="M14.5 6.75V7.75H15.5H20.5495C20.7279 7.75154 20.904 7.79013 21.0667 7.86335C21.2275 7.93569 21.3716 8.04026 21.4903 8.17055C21.6051 8.30528 21.6912 8.46211 21.7432 8.63141C21.7957 8.80275 21.8122 8.98313 21.7916 9.16116C21.7915 9.1621 21.7914 9.16303 21.7913 9.16397L20.6677 18.1526C20.6676 18.1533 20.6675 18.1539 20.6674 18.1545C20.6278 18.4563 20.4803 18.7336 20.252 18.935C20.0237 19.1364 19.7301 19.2484 19.4256 19.25H8.25V18.75V10.5V9.79857L8.42568 9.44721L11.8971 2.50442C12.572 2.54272 13.2114 2.82776 13.6918 3.30819C14.2074 3.82374 14.4979 4.52236 14.5 5.25142V6.75Z" stroke="#006CEE" stroke-width="2"/>
</svg>
