<svg width="14" height="13" viewBox="0 0 14 13" fill="none" xmlns="http://www.w3.org/2000/svg">
<path fill-rule="evenodd" clip-rule="evenodd" d="M0.072265 5.30078L0.77539 10.9258C0.819385 11.265 0.985006 11.5767 1.24149 11.803C1.49797 12.0293 1.82788 12.1548 2.16992 12.1562L12.125 12.1562C12.3736 12.1562 12.6121 12.0575 12.7879 11.8817C12.9637 11.7058 13.0625 11.4674 13.0625 11.2188V6.0625C13.0625 5.81386 12.9637 5.5754 12.7879 5.39959C12.6121 5.22377 12.3736 5.125 12.125 5.125H9.60547L7.39062 0.695312C7.35027 0.618141 7.2897 0.553389 7.21539 0.507977C7.14109 0.462567 7.05583 0.438207 6.96875 0.4375C6.34762 0.439047 5.75238 0.686474 5.31318 1.12568C4.87397 1.56488 4.62655 2.16012 4.625 2.78125V3.71875H1.4668C1.26705 3.7179 1.06944 3.75979 0.887217 3.8416C0.704997 3.92342 0.542386 4.04327 0.410304 4.19311C0.278222 4.34296 0.179722 4.51932 0.121418 4.71037C0.0631145 4.90141 0.0463546 5.10272 0.072265 5.30078ZM5.825 2.78298V4.91875L1.46168 4.91875C1.4331 4.91863 1.40482 4.92461 1.37874 4.93632C1.35267 4.94803 1.3294 4.96518 1.3105 4.98662C1.2916 5.00806 1.2775 5.0333 1.26916 5.06064C1.26082 5.08797 1.25842 5.11678 1.26213 5.14512L1.26302 5.15194L1.96542 10.7714C1.96549 10.772 1.96556 10.7725 1.96564 10.773C1.97256 10.8234 1.99731 10.8696 2.03543 10.9032C2.07361 10.9369 2.12262 10.9557 2.17351 10.9562L8.58125 10.9562V5.75984L6.55896 1.71526C6.41138 1.77249 6.27578 1.86013 6.16171 1.97421C5.94711 2.1888 5.82609 2.47953 5.825 2.78298ZM9.78125 11.2188H12.125V6.0625H9.78125V11.2188Z" fill="#006CEE"/>
</svg>
