<svg width="15" height="15" viewBox="0 0 15 15" fill="none" xmlns="http://www.w3.org/2000/svg">
<g clip-path="url(#clip0_623_24256)">
<path d="M2.49906 4.37156C2.21167 4.37237 1.92698 4.31617 1.66145 4.2062C1.39593 4.09624 1.15486 3.9347 0.952188 3.73094L-0.0390625 2.74031L1.28719 1.41406L2.27781 2.40469C2.33642 2.46327 2.41589 2.49618 2.49875 2.49618C2.58161 2.49618 2.66109 2.46327 2.71969 2.40469L4.96094 0.164062L6.28719 1.48969L4.04594 3.73094C3.84327 3.9347 3.6022 4.09624 3.33667 4.2062C3.07115 4.31617 2.78645 4.37237 2.49906 4.37156ZM14.9991 1.24656H7.49906V3.12156H14.9991V1.24656ZM4.04594 8.73094L6.28719 6.48969L4.96094 5.16406L2.71969 7.40531C2.66109 7.4639 2.58161 7.49681 2.49875 7.49681C2.41589 7.49681 2.33642 7.4639 2.27781 7.40531L1.28719 6.41406L-0.0390625 7.74031L0.952188 8.73094C1.15532 8.93409 1.39648 9.09524 1.66189 9.20519C1.92731 9.31513 2.21178 9.37172 2.49906 9.37172C2.78635 9.37172 3.07082 9.31513 3.33623 9.20519C3.60165 9.09524 3.84281 8.93409 4.04594 8.73094ZM14.9991 6.24656H7.49906V8.12156H14.9991V6.24656ZM4.04594 13.7309L6.28719 11.4897L4.96094 10.1641L2.71969 12.4053C2.66109 12.4639 2.58161 12.4968 2.49875 12.4968C2.41589 12.4968 2.33642 12.4639 2.27781 12.4053L1.28719 11.4141L-0.0390625 12.7403L0.952188 13.7309C1.15532 13.9341 1.39648 14.0952 1.66189 14.2052C1.92731 14.3151 2.21178 14.3717 2.49906 14.3717C2.78635 14.3717 3.07082 14.3151 3.33623 14.2052C3.60165 14.0952 3.84281 13.9341 4.04594 13.7309ZM14.9991 11.2466H7.49906V13.1216H14.9991V11.2466Z" fill="#7A7FAA"/>
</g>
<defs>
<clipPath id="clip0_623_24256">
<rect width="15" height="15" fill="white"/>
</clipPath>
</defs>
</svg>
