<svg width="12" height="12" viewBox="0 0 12 12" fill="none" xmlns="http://www.w3.org/2000/svg">
<g clip-path="url(#clip0_577_29256)">
<path d="M8.291 6.5H7V5.5H9.31C9.711 5.176 10.2075 5 10.7315 5C11.1905 5 11.6285 5.135 12 5.3865V2.5C12 1.673 11.327 1 10.5 1H1.5C0.673 1 0 1.673 0 2.5V11H5V9.7905L8.291 6.5ZM7 3.5H10V4.5H7V3.5ZM4.178 6.62L2.6575 6.3665C1.9865 6.255 1.5 5.68 1.5 5C1.5 4.173 2.173 3.5 3 3.5V3H4V3.5C4.827 3.5 5.5 4.173 5.5 5H4.5C4.5 4.7245 4.276 4.5 4 4.5H3C2.724 4.5 2.5 4.7245 2.5 5C2.5 5.189 2.6355 5.349 2.822 5.38L4.3425 5.6335C5.0135 5.745 5.5 6.32 5.5 7C5.5 7.827 4.827 8.5 4 8.5V9H3V8.5C2.173 8.5 1.5 7.827 1.5 7H2.5C2.5 7.2755 2.724 7.5 3 7.5H4C4.276 7.5 4.5 7.2755 4.5 7C4.5 6.811 4.3645 6.651 4.178 6.62ZM12.0005 7.269C12.0005 7.608 11.8685 7.927 11.6285 8.1665L7.795 12H6V10.205L9.834 6.3715C10.329 5.8765 11.134 5.8765 11.629 6.3715C11.8685 6.611 12.001 6.93 12.001 7.269H12.0005Z" fill="#7A7FAA"/>
</g>
<defs>
<clipPath id="clip0_577_29256">
<rect width="12" height="12" fill="white"/>
</clipPath>
</defs>
</svg>
