<svg width="11" height="11" viewBox="0 0 11 11" fill="none" xmlns="http://www.w3.org/2000/svg">
<path fill-rule="evenodd" clip-rule="evenodd" d="M8.59375 8.3125C8.43842 8.3125 8.3125 8.43842 8.3125 8.59375C8.3125 8.74908 8.43842 8.875 8.59375 8.875C8.74908 8.875 8.875 8.74908 8.875 8.59375C8.875 8.43842 8.74908 8.3125 8.59375 8.3125ZM6.8125 8.59375C6.8125 7.60999 7.60999 6.8125 8.59375 6.8125C9.57751 6.8125 10.375 7.60999 10.375 8.59375C10.375 9.57751 9.57751 10.375 8.59375 10.375C7.60999 10.375 6.8125 9.57751 6.8125 8.59375Z" fill="#161616"/>
<path fill-rule="evenodd" clip-rule="evenodd" d="M2.34375 2.40625C2.34375 1.99204 2.67954 1.65625 3.09375 1.65625H7.21875C7.78234 1.65625 8.32284 1.88013 8.72135 2.27865C9.11987 2.67716 9.34375 3.21766 9.34375 3.78125C9.34375 4.34484 9.11987 4.88534 8.72135 5.28385C8.32284 5.68237 7.78234 5.90625 7.21875 5.90625H3.09375C2.83682 5.90625 2.59042 6.00831 2.40874 6.18999C2.22706 6.37167 2.125 6.61807 2.125 6.875C2.125 7.13193 2.22706 7.37833 2.40874 7.56001C2.59042 7.74169 2.83682 7.84375 3.09375 7.84375H7.5625C7.97671 7.84375 8.3125 8.17954 8.3125 8.59375C8.3125 9.00796 7.97671 9.34375 7.5625 9.34375H3.09375C2.439 9.34375 1.81106 9.08365 1.34808 8.62067C0.8851 8.15769 0.625 7.52975 0.625 6.875C0.625 6.22025 0.8851 5.59231 1.34808 5.12933C1.81106 4.66635 2.439 4.40625 3.09375 4.40625H7.21875C7.38451 4.40625 7.54348 4.3404 7.66069 4.22319C7.7779 4.10598 7.84375 3.94701 7.84375 3.78125C7.84375 3.61549 7.7779 3.45652 7.66069 3.33931C7.54348 3.2221 7.38451 3.15625 7.21875 3.15625H3.09375C2.67954 3.15625 2.34375 2.82046 2.34375 2.40625Z" fill="#161616"/>
</svg>
