<svg width="12" height="12" viewBox="0 0 12 12" fill="none" xmlns="http://www.w3.org/2000/svg">
<g clip-path="url(#clip0_14_32295)">
<path d="M0 8.75C0 9.21413 0.184374 9.65925 0.512563 9.98744C0.840752 10.3156 1.28587 10.5 1.75 10.5L10.25 10.5C10.7141 10.5 11.1592 10.3156 11.4874 9.98744C11.8156 9.65925 12 9.21413 12 8.75C12 8.28587 11.8156 7.84075 11.4874 7.51256C11.1592 7.18437 10.7141 7 10.25 7L1.75 7C1.28587 7 0.840752 7.18437 0.512563 7.51256C0.184374 7.84075 0 8.28587 0 8.75Z" fill="#006CEE"/>
<path d="M0 3.25C0 3.71413 0.184374 4.15925 0.512563 4.48744C0.840752 4.81563 1.28587 5 1.75 5L10.25 5C10.7141 5 11.1592 4.81563 11.4874 4.48744C11.8156 4.15925 12 3.71413 12 3.25C12 2.78587 11.8156 2.34075 11.4874 2.01256C11.1592 1.68437 10.7141 1.5 10.25 1.5L1.75 1.5C1.28587 1.5 0.840752 1.68437 0.512563 2.01256C0.184374 2.34075 0 2.78587 0 3.25Z" fill="#006CEE"/>
</g>
<defs>
<clipPath id="clip0_14_32295">
<rect width="12" height="12" fill="white" transform="matrix(0 -1 1 0 0 12)"/>
</clipPath>
</defs>
</svg>
