<svg width="20" height="20" viewBox="0 0 20 20" fill="none" xmlns="http://www.w3.org/2000/svg">
<path fill-rule="evenodd" clip-rule="evenodd" d="M10 3.25C6.27208 3.25 3.25 6.27208 3.25 10C3.25 13.7279 6.27208 16.75 10 16.75C13.7279 16.75 16.75 13.7279 16.75 10C16.75 6.27208 13.7279 3.25 10 3.25ZM1.75 10C1.75 5.44365 5.44365 1.75 10 1.75C14.5563 1.75 18.25 5.44365 18.25 10C18.25 14.5563 14.5563 18.25 10 18.25C5.44365 18.25 1.75 14.5563 1.75 10Z" fill="#006CEE"/>
<path fill-rule="evenodd" clip-rule="evenodd" d="M4.16498 4.16498C4.45788 3.87209 4.93275 3.87209 5.22564 4.16498L15.835 14.7744C16.1279 15.0672 16.1279 15.5421 15.835 15.835C15.5421 16.1279 15.0672 16.1279 14.7744 15.835L4.16498 5.22564C3.87209 4.93275 3.87209 4.45788 4.16498 4.16498Z" fill="#006CEE"/>
</svg>
