<svg width="17" height="17" viewBox="0 0 17 17" fill="none" xmlns="http://www.w3.org/2000/svg">
<g clip-path="url(#clip0_504_24187)">
<path d="M13.3888 10.2782C12.8847 10.2786 12.3883 10.4016 11.9425 10.6367C11.4966 10.8718 11.1146 11.2118 10.8295 11.6275L6.49012 9.66816C6.79833 8.92392 6.79952 8.08796 6.49345 7.34283L10.8268 5.3735C11.2494 5.98467 11.877 6.42414 12.5958 6.6122C13.3147 6.80025 14.0771 6.72443 14.7449 6.3985C15.4126 6.07256 15.9414 5.5181 16.2353 4.83568C16.5293 4.15325 16.5689 3.38808 16.347 2.67895C16.1251 1.96981 15.6564 1.3637 15.0259 0.970535C14.3954 0.577374 13.6449 0.423213 12.9105 0.536016C12.1761 0.648818 11.5064 1.02111 11.0229 1.58537C10.5395 2.14962 10.2743 2.86846 10.2755 3.6115C10.2783 3.78736 10.2961 3.96267 10.3288 4.1355L5.72212 6.22883C5.27968 5.81431 4.72579 5.53806 4.1285 5.43401C3.53121 5.32996 2.91654 5.40264 2.35999 5.64314C1.80344 5.88363 1.32927 6.28146 0.995715 6.78774C0.662163 7.29402 0.483761 7.88671 0.482429 8.493C0.481097 9.09928 0.656892 9.69275 0.988217 10.2005C1.31954 10.7082 1.79197 11.1081 2.34745 11.3511C2.90293 11.594 3.51728 11.6694 4.11502 11.568C4.71276 11.4666 5.26786 11.1927 5.71212 10.7802L10.3308 12.8655C10.2987 13.0382 10.2811 13.2132 10.2781 13.3888C10.278 14.0043 10.4604 14.6059 10.8022 15.1176C11.144 15.6294 11.6299 16.0283 12.1985 16.2639C12.767 16.4994 13.3927 16.5611 13.9963 16.4411C14.5999 16.3211 15.1543 16.0247 15.5895 15.5895C16.0247 15.1544 16.321 14.5999 16.441 13.9963C16.5611 13.3927 16.4994 12.7671 16.2638 12.1985C16.0282 11.63 15.6294 11.1441 15.1176 10.8022C14.6058 10.4604 14.0042 10.278 13.3888 10.2782ZM13.3888 1.8335C13.7405 1.83337 14.0843 1.93753 14.3768 2.13282C14.6692 2.32811 14.8972 2.60575 15.0319 2.93063C15.1666 3.2555 15.2019 3.61302 15.1334 3.95796C15.0648 4.3029 14.8956 4.61977 14.6469 4.8685C14.3983 5.11722 14.0815 5.28663 13.7366 5.35529C13.3917 5.42394 13.0341 5.38877 12.7092 5.25422C12.3843 5.11967 12.1065 4.89178 11.9111 4.59937C11.7157 4.30697 11.6115 3.96318 11.6115 3.6115C11.6118 3.14017 11.7992 2.68823 12.1324 2.35489C12.4656 2.02154 12.9175 1.83403 13.3888 1.8335ZM3.61145 10.2782C3.25977 10.2783 2.91594 10.1741 2.62347 9.97884C2.33099 9.78355 2.10299 9.50591 1.96832 9.18104C1.83364 8.85616 1.79834 8.49865 1.86687 8.1537C1.9354 7.80876 2.10468 7.49189 2.35331 7.24317C2.60194 6.99444 2.91875 6.82504 3.26367 6.75638C3.60859 6.68772 3.96612 6.72289 4.29104 6.85744C4.61597 6.992 4.89369 7.21989 5.08909 7.51229C5.28449 7.8047 5.38878 8.14848 5.38878 8.50016C5.38826 8.97144 5.20085 9.42327 4.86767 9.75658C4.53449 10.0899 4.08273 10.2775 3.61145 10.2782ZM13.3888 15.1668C13.0371 15.1668 12.6934 15.0626 12.401 14.8672C12.1086 14.6718 11.8807 14.3941 11.7461 14.0692C11.6116 13.7444 11.5763 13.3869 11.6449 13.042C11.7136 12.6971 11.8829 12.3803 12.1315 12.1316C12.3802 11.8829 12.697 11.7136 13.0419 11.645C13.3868 11.5764 13.7443 11.6116 14.0692 11.7462C14.3941 11.8807 14.6718 12.1086 14.8671 12.401C15.0625 12.6934 15.1668 13.0372 15.1668 13.3888C15.1664 13.8603 14.979 14.3123 14.6456 14.6457C14.3123 14.979 13.8602 15.1665 13.3888 15.1668Z" fill="#006CEE"/>
</g>
<defs>
<clipPath id="clip0_504_24187">
<rect width="16" height="16" fill="white" transform="translate(0.5 0.5)"/>
</clipPath>
</defs>
</svg>
