<svg width="15" height="15" viewBox="0 0 15 15" fill="none" xmlns="http://www.w3.org/2000/svg">
<path d="M15 4.375V5H0V4.375C0 2.64937 1.39938 1.25 3.125 1.25H3.75V0.625C3.75 0.28 4.03 0 4.375 0C4.72 0 5 0.28 5 0.625V1.25H10V0.625C10 0.28 10.28 0 10.625 0C10.97 0 11.25 0.28 11.25 0.625V1.25H11.875C13.6006 1.25 15 2.64937 15 4.375ZM15 10.625C15 13.0375 13.0369 15 10.625 15C8.21313 15 6.25 13.0375 6.25 10.625C6.25 8.2125 8.21313 6.25 10.625 6.25C13.0369 6.25 15 8.2125 15 10.625ZM11.875 10.9913L11.25 10.3663V9.375C11.25 9.03 10.97 8.75 10.625 8.75C10.28 8.75 10 9.03 10 9.375V10.625C10 10.7906 10.0656 10.95 10.1831 11.0669L10.9913 11.875C11.235 12.1187 11.6313 12.1187 11.875 11.875C12.1187 11.6313 12.1187 11.235 11.875 10.9913ZM5 10.625C5 8.85688 5.8175 7.28125 7.09312 6.25H0V11.875C0 13.6006 1.39938 15 3.125 15H7.09312C5.8175 13.9688 5 12.3931 5 10.625Z" fill="#7A7FAA"/>
</svg>
