<svg width="11" height="11" viewBox="0 0 11 11" fill="none" xmlns="http://www.w3.org/2000/svg">
<path fill-rule="evenodd" clip-rule="evenodd" d="M1.21875 2.40625C1.21875 2.13011 1.44261 1.90625 1.71875 1.90625H9.28125C9.55739 1.90625 9.78125 2.13011 9.78125 2.40625C9.78125 2.68239 9.55739 2.90625 9.28125 2.90625H1.71875C1.44261 2.90625 1.21875 2.68239 1.21875 2.40625Z" fill="#161616"/>
<path fill-rule="evenodd" clip-rule="evenodd" d="M4.46875 3.96875C4.74489 3.96875 4.96875 4.19261 4.96875 4.46875V7.21875C4.96875 7.49489 4.74489 7.71875 4.46875 7.71875C4.19261 7.71875 3.96875 7.49489 3.96875 7.21875V4.46875C3.96875 4.19261 4.19261 3.96875 4.46875 3.96875Z" fill="#161616"/>
<path fill-rule="evenodd" clip-rule="evenodd" d="M6.53125 3.96875C6.80739 3.96875 7.03125 4.19261 7.03125 4.46875V7.21875C7.03125 7.49489 6.80739 7.71875 6.53125 7.71875C6.25511 7.71875 6.03125 7.49489 6.03125 7.21875V4.46875C6.03125 4.19261 6.25511 3.96875 6.53125 3.96875Z" fill="#161616"/>
<path fill-rule="evenodd" clip-rule="evenodd" d="M2.40625 1.90625C2.68239 1.90625 2.90625 2.13011 2.90625 2.40625V8.78125H8.09375V2.40625C8.09375 2.13011 8.31761 1.90625 8.59375 1.90625C8.86989 1.90625 9.09375 2.13011 9.09375 2.40625V8.9375C9.09375 9.16127 9.00486 9.37589 8.84662 9.53412C8.68839 9.69236 8.47377 9.78125 8.25 9.78125H2.75C2.52622 9.78125 2.31161 9.69236 2.15338 9.53412C1.99514 9.37589 1.90625 9.16128 1.90625 8.9375V2.40625C1.90625 2.13011 2.13011 1.90625 2.40625 1.90625Z" fill="#161616"/>
<path fill-rule="evenodd" clip-rule="evenodd" d="M3.62906 0.879061C3.85176 0.656361 4.15381 0.53125 4.46875 0.53125H6.53125C6.84619 0.53125 7.14824 0.656361 7.37094 0.879061C7.59364 1.10176 7.71875 1.40381 7.71875 1.71875V2.40625C7.71875 2.68239 7.49489 2.90625 7.21875 2.90625C6.94261 2.90625 6.71875 2.68239 6.71875 2.40625V1.71875C6.71875 1.66902 6.699 1.62133 6.66383 1.58617C6.62867 1.551 6.58098 1.53125 6.53125 1.53125H4.46875C4.41902 1.53125 4.37133 1.551 4.33617 1.58617C4.301 1.62133 4.28125 1.66902 4.28125 1.71875V2.40625C4.28125 2.68239 4.05739 2.90625 3.78125 2.90625C3.50511 2.90625 3.28125 2.68239 3.28125 2.40625V1.71875C3.28125 1.40381 3.40636 1.10176 3.62906 0.879061Z" fill="#161616"/>
</svg>
