<svg width="238" height="32" viewBox="0 0 238 32" fill="none" xmlns="http://www.w3.org/2000/svg">
<path d="M54.92 27V10.68H57.848V27H54.92ZM61.3814 27V15.384H64.0694V16.92C64.4534 16.376 64.9654 15.944 65.6054 15.624C66.2614 15.304 66.9894 15.144 67.7894 15.144C69.0534 15.144 70.0774 15.496 70.8614 16.2C71.6454 16.904 72.0374 17.928 72.0374 19.272V27H69.2774V19.824C69.2774 19.088 69.0774 18.528 68.6774 18.144C68.2774 17.744 67.6694 17.544 66.8534 17.544C66.1334 17.544 65.5014 17.76 64.9574 18.192C64.4134 18.624 64.1414 19.224 64.1414 19.992V27H61.3814ZM75.1393 27V15.384H77.8033V16.92C78.2033 16.312 78.6993 15.904 79.2913 15.696C79.8993 15.488 80.4753 15.384 81.0193 15.384H81.9553V17.88H80.9713C80.1873 17.88 79.4833 18.04 78.8593 18.36C78.2353 18.664 77.9233 19.152 77.9233 19.824V27H75.1393ZM91.5883 27V25.512C91.1883 26.04 90.6523 26.464 89.9803 26.784C89.3243 27.088 88.5963 27.24 87.7963 27.24C86.5323 27.24 85.5243 26.888 84.7723 26.184C84.0203 25.48 83.6443 24.456 83.6443 23.112V15.384H86.4043V22.56C86.4043 23.28 86.5963 23.84 86.9803 24.24C87.3803 24.64 87.9803 24.84 88.7803 24.84C89.5483 24.84 90.1883 24.616 90.7003 24.168C91.2123 23.72 91.4683 23.128 91.4683 22.392V15.384H94.2283V27H91.5883ZM104.291 27H102.371C100.803 27 99.6992 26.672 99.0592 26.016C98.4192 25.344 98.0992 24.24 98.0992 22.704V17.832H96.2272V15.384H98.0992V12.432H100.859V15.384H104.219V17.832H100.859V22.656C100.859 23.36 101.003 23.856 101.291 24.144C101.595 24.416 102.043 24.552 102.635 24.552H104.291V27Z" fill="#006CEE"/>
<path d="M37 3C37 1.34315 35.6569 0 34 0H3C1.34315 0 0 1.34315 0 3V29C0 30.6569 1.34315 32 3 32H34C35.6569 32 37 30.6569 37 29V3Z" fill="#006CEE"/>
</svg>
