<?xml version="1.0" encoding="utf-8"?><svg viewBox="0 0 512 512" xmlns="http://www.w3.org/2000/svg" xmlns:xlink="http://www.w3.org/1999/xlink"><style>:root>svg{display:none}:root>svg:target{display:block}</style><svg viewBox="0 0 24 24" id="ChatCircleDots" xmlns="http://www.w3.org/2000/svg"><path d="M19.675 2.758A11.936 11.936 0 0010.474.1 12 12 0 0012.018 24H19a5.006 5.006 0 005-5v-7.754a12.044 12.044 0 00-4.325-8.488zM8 7h4a1 1 0 010 2H8a1 1 0 010-2zm8 10H8a1 1 0 010-2h8a1 1 0 010 2zm0-4H8a1 1 0 010-2h8a1 1 0 010 2z"/></svg><svg viewBox="0 0 20 20" id="ChatCircleDots-2" xmlns="http://www.w3.org/2000/svg"><path d="M0 0h20v20H0z"/><path d="M3.547 13.828a7.492 7.492 0 112.625 2.625l-2.594.734a.617.617 0 01-.765-.765l.734-2.594z"/><path d="M10 10.781a.781.781 0 100-1.562.781.781 0 000 1.562zm3.75 0a.781.781 0 100-1.562.781.781 0 000 1.562zm-7.5 0a.781.781 0 100-1.562.781.781 0 000 1.562z"/></svg><svg viewBox="0 0 24 24" data-name="Layer 1" id="add" xmlns="http://www.w3.org/2000/svg"><path d="M12 0a12 12 0 1012 12A12.013 12.013 0 0012 0zm4 13h-3v3a1 1 0 01-2 0v-3H8a1 1 0 010-2h3V8a1 1 0 012 0v3h3a1 1 0 010 2z"/></svg><svg viewBox="0 0 12 12" id="apps" xmlns="http://www.w3.org/2000/svg"><g clip-path="url(#ada)"><path d="M2 0h1.5a2 2 0 012 2v1.5a2 2 0 01-2 2H2a2 2 0 01-2-2V2a2 2 0 012-2zm6.5 0H10a2 2 0 012 2v1.5a2 2 0 01-2 2H8.5a2 2 0 01-2-2V2a2 2 0 012-2zM2 6.5h1.5a2 2 0 012 2V10a2 2 0 01-2 2H2a2 2 0 01-2-2V8.5a2 2 0 012-2zm6.5 0H10a2 2 0 012 2V10a2 2 0 01-2 2H8.5a2 2 0 01-2-2V8.5a2 2 0 012-2z"/></g><defs><clipPath id="ada"><path d="M0 0h12v12H0z"/></clipPath></defs></svg><svg viewBox="0 0 20 20" id="arrow-left" xmlns="http://www.w3.org/2000/svg"><path d="M13 6.175L9.465 10 13 13.825 11.906 15l-4.62-5 4.62-5L13 6.175z"/></svg><svg viewBox="0 0 20 20" id="arrow-right" xmlns="http://www.w3.org/2000/svg"><path d="M7.143 13.68l3.534-3.825L7.143 6.03l1.093-1.175 4.62 5-4.62 5-1.093-1.175z"/></svg><svg viewBox="0 0 10 5" id="arrow-small" xmlns="http://www.w3.org/2000/svg"><path d="M1.175 0L5 3.093 8.825 0 10 .957 5 5 0 .957 1.175 0z"/></svg><svg viewBox="0 0 24 24" data-name="Layer 1" id="bank" xmlns="http://www.w3.org/2000/svg"><path d="M24 22.5a1.5 1.5 0 01-1.5 1.5h-21a1.5 1.5 0 010-3h21a1.5 1.5 0 011.5 1.5zM.37 9.341A3.03 3.03 0 01.5 6.228a5.1 5.1 0 011.785-1.669L9.444.652a5.314 5.314 0 015.112 0l7.16 3.907A5.106 5.106 0 0123.5 6.226a3.032 3.032 0 01.134 3.115A3.126 3.126 0 0121 10.991V16h.5a1.5 1.5 0 010 3h-19a1.5 1.5 0 010-3H3v-5.009a3.126 3.126 0 01-2.63-1.65zM6 16h2v-5H6zm5-5v5h2v-5zm7 5v-5h-2v5zM3 7.887A.14.14 0 003.131 8h17.738A.145.145 0 0021 7.885a2.145 2.145 0 00-.721-.693l-7.16-3.906a2.325 2.325 0 00-2.236 0L3.722 7.192A2.1 2.1 0 003 7.887z"/></svg><svg viewBox="0 0 15 16" id="bolt" xmlns="http://www.w3.org/2000/svg"><g clip-path="url(#aia)"><path d="M7.025 15.5c-.204 0-.407-.046-.592-.133a1.363 1.363 0 01-.75-1.638l.975-3.229H4.36a1.874 1.874 0 01-1.797-2.418l1.89-6.25A1.864 1.864 0 016.25.5h2.308a1.625 1.625 0 011.521 2.194L9.027 5.5h1.598a1.875 1.875 0 011.552 2.928l-4 6.437a1.374 1.374 0 01-1.152.635zM6.25 1.75a.625.625 0 00-.598.444l-1.89 6.25a.625.625 0 00.598.806H7.5a.625.625 0 01.598.806l-1.216 4.027a.115.115 0 00.075.15.119.119 0 00.138-.008.116.116 0 00.03-.037l4-6.438a.625.625 0 00.05-.664.611.611 0 00-.55-.336h-2.5a.625.625 0 01-.585-.844l1.368-3.65a.375.375 0 00-.35-.506H6.25z"/></g><defs><clipPath id="aia"><path transform="translate(0 .5)" d="M0 0h15v15H0z"/></clipPath></defs></svg><svg viewBox="0 0 10 10" id="briefcase" xmlns="http://www.w3.org/2000/svg"><g clip-path="url(#aja)"><path d="M7.917 1.667h-.459A2.087 2.087 0 005.417 0h-.834a2.087 2.087 0 00-2.041 1.667h-.459A2.086 2.086 0 000 3.75V5h10V3.75a2.086 2.086 0 00-2.083-2.083zm-4.507 0A1.25 1.25 0 014.583.833h.834a1.25 1.25 0 011.173.834H3.41zm2.007 4.582a.417.417 0 01-.834 0v-.417H0v2.083A2.086 2.086 0 002.083 10h5.834A2.086 2.086 0 0010 7.915V5.832H5.417v.417z"/></g><defs><clipPath id="aja"><path d="M0 0h10v10H0z"/></clipPath></defs></svg><svg viewBox="0 0 15 16" id="budget" xmlns="http://www.w3.org/2000/svg"><g clip-path="url(#aka)"><path d="M10.313.5c-2.63 0-4.688 1.236-4.688 2.813v1.616a8.011 8.011 0 00-.938-.054C2.06 4.875 0 6.111 0 7.688v5C0 14.264 2.059 15.5 4.688 15.5c2.129 0 3.885-.81 4.474-1.957.374.055.76.082 1.15.082 2.63 0 4.688-1.236 4.688-2.813v-7.5C15 1.736 12.941.5 10.312.5zm3.437 7.813c0 .737-1.47 1.562-3.438 1.562-.32 0-.633-.022-.937-.064V8.57c.306.035.62.054.938.054 1.37 0 2.587-.336 3.437-.882v.57zM1.25 9.617c.85.546 2.066.882 3.438.882 1.37 0 2.587-.336 3.437-.882v.57c0 .737-1.47 1.562-3.438 1.562-1.967 0-3.437-.825-3.437-1.563v-.569zm12.5-3.806c0 .738-1.47 1.563-3.438 1.563-.334 0-.662-.024-.978-.07-.12-.554-.5-1.052-1.066-1.452a7.508 7.508 0 002.044.272c1.372 0 2.588-.336 3.438-.882v.57zM10.312 1.75c1.968 0 3.438.825 3.438 1.563 0 .737-1.47 1.562-3.438 1.562-1.967 0-3.437-.825-3.437-1.563 0-.737 1.47-1.562 3.438-1.562zM4.689 6.125c1.967 0 3.437.825 3.437 1.563 0 .737-1.47 1.562-3.438 1.562-1.967 0-3.437-.825-3.437-1.563 0-.737 1.47-1.562 3.438-1.562zm0 8.125c-1.968 0-3.438-.825-3.438-1.563v-.569c.85.546 2.066.882 3.438.882 1.37 0 2.587-.336 3.437-.882v.57c0 .737-1.47 1.562-3.438 1.562zm5.625-1.875a6.86 6.86 0 01-.938-.064v-1.24c.306.035.62.054.938.054 1.37 0 2.587-.336 3.437-.882v.57c0 .737-1.47 1.562-3.438 1.562z"/></g><defs><clipPath id="aka"><path transform="translate(0 .5)" d="M0 0h15v15H0z"/></clipPath></defs></svg><svg viewBox="0 0 15 16" id="calculator" xmlns="http://www.w3.org/2000/svg"><g clip-path="url(#ala)"><path d="M11.563 15.5H3.437A3.441 3.441 0 010 12.062V3.938A3.441 3.441 0 013.438.5h8.124A3.441 3.441 0 0115 3.938v8.124a3.442 3.442 0 01-3.438 3.438zM3.437 2.375a1.562 1.562 0 00-1.562 1.563v8.124a1.563 1.563 0 001.563 1.563h8.124a1.563 1.563 0 001.563-1.563V3.938a1.563 1.563 0 00-1.563-1.563H3.438zm8.438 2.5a1.25 1.25 0 00-1.25-1.25h-6.25a1.25 1.25 0 000 2.5h6.25a1.25 1.25 0 001.25-1.25zM4.062 7.688a.937.937 0 100 1.874.937.937 0 000-1.874zm3.125 0a.937.937 0 100 1.874.937.937 0 000-1.874zM4.063 10.5a.938.938 0 100 1.875.938.938 0 000-1.875zm3.125 0a.938.938 0 100 1.875.938.938 0 000-1.875zm4.688.938a.938.938 0 00-.938-.938h-.624a.938.938 0 000 1.875h.624a.938.938 0 00.938-.938zm0-2.813a.938.938 0 00-.938-.938h-.624a.938.938 0 000 1.875h.624a.937.937 0 00.938-.937z"/></g><defs><clipPath id="ala"><path transform="translate(0 .5)" d="M0 0h15v15H0z"/></clipPath></defs></svg><svg data-name="Layer 1" viewBox="0 0 24 24" id="calendar" xmlns="http://www.w3.org/2000/svg"><path d="M24 7v1H0V7a5 5 0 015-5h1V1a1 1 0 012 0v1h8V1a1 1 0 012 0v1h1a5 5 0 015 5zm0 10c0 3.86-3.141 7-7 7s-7-3.14-7-7 3.141-7 7-7 7 3.14 7 7zm-5 .586l-1-1V15a1 1 0 00-2 0v2c0 .265.105.52.293.707L17.586 19A1 1 0 0019 17.586zM8 17a8.98 8.98 0 013.349-7H0v9a5 5 0 005 5h6.349A8.98 8.98 0 018 17z"/></svg><svg viewBox="0 0 12 12" id="calendar-lines-pen" xmlns="http://www.w3.org/2000/svg"><path d="M12 4H0v-.5C0 2.122 1.121 1 2.5 1H3V.5a.5.5 0 111 0V1h4V.5a.5.5 0 111 0V1h.5C10.879 1 12 2.122 12 3.5V4zm-7 7.273c0-.447.093-.877.268-1.273H3a.5.5 0 110-1h2.96l1-1H3a.5.5 0 110-1h4.961l1.37-1.37c.407-.407.946-.63 1.52-.63H0v4.5C0 10.879 1.121 12 2.5 12H5v-.727zm5.039-4.936a1.15 1.15 0 011.625 1.625L8.26 11.364A2.167 2.167 0 016.728 12H6v-.727c0-.575.229-1.127.635-1.533l3.404-3.404z"/></svg><svg data-name="Layer 1" viewBox="0 0 24 24" id="cart-1" xmlns="http://www.w3.org/2000/svg"><path d="M23.32 4.1C22.75 3.4 21.9 3 21 3H7.24l-.04-.35A3.004 3.004 0 004.22 0H3c-.55 0-1 .45-1 1s.45 1 1 1h1.22c.51 0 .93.38.99.88l1.38 11.7C6.89 17.1 9.02 19 11.56 19H20c.55 0 1-.45 1-1s-.45-1-1-1h-8.44c-1.29 0-2.4-.83-2.82-2h9.42c2.38 0 4.44-1.69 4.9-4.02l.88-4.39a2.99 2.99 0 00-.62-2.49zM11 22c0 1.1-.9 2-2 2s-2-.9-2-2 .9-2 2-2 2 .9 2 2zm9 0c0 1.1-.9 2-2 2s-2-.9-2-2 .9-2 2-2 2 .9 2 2zM0 6c0-.55.45-1 1-1h1.54c.55 0 1 .45 1 1s-.45 1-1 1H1c-.55 0-1-.45-1-1zm0 4c0-.55.45-1 1-1h2c.55 0 1 .45 1 1s-.45 1-1 1H1c-.55 0-1-.45-1-1zm5 4c0 .55-.45 1-1 1H1c-.55 0-1-.45-1-1s.45-1 1-1h3c.55 0 1 .45 1 1z"/></svg><svg data-name="Layer 1" viewBox="0 0 24 24" id="cart-3" xmlns="http://www.w3.org/2000/svg"><circle cx="7" cy="22" r="2"/><circle cx="17" cy="22" r="2"/><path d="M22.813 9.583A6 6 0 0112.8 3H4.242L4.2 2.648A3 3 0 001.222 0H0v2h1.222a1 1 0 01.993.883L3.8 16.351A3 3 0 006.778 19H20v-2H6.778a1 1 0 01-.993-.884L5.654 15h16.182z"/><path d="M17.111 9.542h-.033a1.872 1.872 0 01-1.345-.6l-2.306-2.4 1.441-1.382 2.244 2.34L21.3 3.3l1.414 1.414-4.268 4.275a1.873 1.873 0 01-1.335.553z"/></svg><svg viewBox="0 0 15 15" id="chat" xmlns="http://www.w3.org/2000/svg"><path d="M12.5 0h-10A2.5 2.5 0 000 2.5V10a2.5 2.5 0 002.5 2.5h1.813l2.781 2.352a.625.625 0 00.808 0l2.785-2.352H12.5A2.5 2.5 0 0015 10V2.5A2.5 2.5 0 0012.5 0zM4.375 3.125H7.5a.625.625 0 010 1.25H4.375a.625.625 0 010-1.25zm6.25 6.25h-6.25a.625.625 0 010-1.25h6.25a.625.625 0 110 1.25zm0-2.5h-6.25a.625.625 0 010-1.25h6.25a.625.625 0 110 1.25z"/></svg><svg viewBox="0 0 21 20" id="check" xmlns="http://www.w3.org/2000/svg"><path d="M6.675 7l3.825 3.535L14.325 7 15.5 8.094l-5 4.62-5-4.62L6.675 7z"/></svg><svg viewBox="0 0 20 21" id="check-circle" xmlns="http://www.w3.org/2000/svg"><path fill-rule="evenodd" clip-rule="evenodd" d="M13.98 8.107a.75.75 0 01-.025 1.06L9.37 13.544a.75.75 0 01-1.036 0l-2.289-2.188a.75.75 0 111.037-1.085l1.771 1.693 4.068-3.88a.75.75 0 011.06.024z"/><path fill-rule="evenodd" clip-rule="evenodd" d="M10 3.75a6.75 6.75 0 100 13.5 6.75 6.75 0 000-13.5zM1.75 10.5a8.25 8.25 0 1116.5 0 8.25 8.25 0 01-16.5 0z"/></svg><svg viewBox="0 0 20 20" id="clock" xmlns="http://www.w3.org/2000/svg"><path d="M10 17.5a7.5 7.5 0 100-15 7.5 7.5 0 000 15z"/><path d="M10 5.625V10h4.375"/></svg><svg viewBox="0 0 9 9" id="close" xmlns="http://www.w3.org/2000/svg"><path d="M7.031 1.969L1.97 7.03m5.061.001L1.97 1.97"/></svg><svg viewBox="0 0 15 16" id="comment" xmlns="http://www.w3.org/2000/svg"><g clip-path="url(#ava)"><path d="M8.437 7.063a.938.938 0 11-1.876-.001.938.938 0 011.876 0zm2.188-.938a.938.938 0 100 1.876.938.938 0 000-1.876zm-6.25 0a.938.938 0 100 1.876.938.938 0 000-1.876zM15 3v7.5c0 1.379-1.122 2.5-2.5 2.5h-1.783l-2.405 1.988a1.21 1.21 0 01-.807.302c-.298 0-.597-.105-.836-.317L4.326 13H2.499a2.503 2.503 0 01-2.5-2.5V3c0-1.379 1.122-2.5 2.5-2.5h10A2.502 2.502 0 0115 3zm-1.25 0c0-.69-.561-1.25-1.25-1.25h-10c-.69 0-1.25.56-1.25 1.25v7.5c0 .69.56 1.25 1.25 1.25h2.055c.147 0 .29.052.403.147l2.53 2.131 2.607-2.135a.624.624 0 01.398-.143H12.5c.69 0 1.25-.56 1.25-1.25V3z"/></g><defs><clipPath id="ava"><path transform="translate(0 .5)" d="M0 0h15v15H0z"/></clipPath></defs></svg><svg viewBox="0 0 20 20" id="complain" xmlns="http://www.w3.org/2000/svg"><path d="M9.167 10.832v-5c0-.458.375-.833.833-.833.458 0 .833.375.833.833v5a.836.836 0 01-.833.833.836.836 0 01-.833-.833zM10 12.499c-.692 0-1.25.558-1.25 1.25a1.25 1.25 0 101.25-1.25zm9.65 4.066c-.583 1.125-1.808 1.767-3.342 1.767H3.7c-1.542 0-2.758-.642-3.342-1.767-.591-1.133-.425-2.583.417-3.8l6.7-10.6A3.06 3.06 0 0110 .832c1 0 1.933.483 2.5 1.308l6.733 10.642c.842 1.217 1 2.658.409 3.783h.008zm-1.792-2.85s-.017-.016-.017-.033L11.117 3.057A1.366 1.366 0 0010 2.499a1.36 1.36 0 00-1.133.591L2.158 13.682c-.516.733-.633 1.533-.333 2.108.292.567.958.875 1.867.875h12.6c.908 0 1.574-.308 1.866-.875.3-.575.183-1.375-.308-2.075h.008z"/></svg><svg viewBox="0 0 12 13" id="crosshair" xmlns="http://www.w3.org/2000/svg"><path d="M6 10.625a4.125 4.125 0 100-8.25 4.125 4.125 0 000 8.25zm0-9.187v1.875M.938 6.5h1.875M6 11.563V9.687M11.063 6.5H9.187"/><path d="M6 8a1.5 1.5 0 100-3 1.5 1.5 0 000 3z"/></svg><svg viewBox="0 0 15 14" id="crown" xmlns="http://www.w3.org/2000/svg"><g clip-path="url(#aya)"><path d="M14.229 1.538a1.102 1.102 0 00-.723-.082 1.208 1.208 0 00-.64.392L11.25 3.697 8.384.419A1.176 1.176 0 007.5 0c-.331 0-.65.15-.884.419L3.75 3.697 2.134 1.848a1.21 1.21 0 00-.64-.39 1.105 1.105 0 00-.722.08 1.303 1.303 0 00-.561.527A1.58 1.58 0 000 2.859v7.567c.001.947.33 1.856.916 2.526.586.67 1.38 1.047 2.209 1.048h8.75c.829-.001 1.623-.378 2.209-1.048.585-.67.915-1.579.916-2.526V2.859c0-.283-.073-.56-.21-.794a1.303 1.303 0 00-.561-.527z"/></g><defs><clipPath id="aya"><path d="M0 0h15v14H0z"/></clipPath></defs></svg><svg viewBox="0 0 15 16" id="dislike" xmlns="http://www.w3.org/2000/svg"><path fill-rule="evenodd" clip-rule="evenodd" d="M13.928 9.7l-.703-5.626a1.412 1.412 0 00-1.395-1.23H1.875a.937.937 0 00-.938.937v5.156a.937.937 0 00.938.938h2.52l2.214 4.43a.48.48 0 00.422.258 2.35 2.35 0 002.344-2.344v-.938h3.158A1.4 1.4 0 0013.928 9.7zm-5.753 2.517v-2.136h4.363a.201.201 0 00.2-.226l-.001-.007-.702-5.62v-.001a.213.213 0 00-.209-.183H5.42V9.24l2.022 4.045a1.148 1.148 0 00.734-1.068zM4.219 3.781H1.875v5.156h2.344V3.782z"/></svg><svg viewBox="0 0 15 16" id="dollar" xmlns="http://www.w3.org/2000/svg"><g clip-path="url(#baa)"><path d="M10 14.875c0 .345-.28.625-.625.625H3.75a3.129 3.129 0 01-3.125-3.125v-8.75A3.129 3.129 0 013.75.5h2.822a4.35 4.35 0 013.094 1.281l2.177 2.179c.17.17.327.355.468.552a.625.625 0 11-1.017.726c-.1-.14-.213-.274-.334-.394L8.782 2.666a3.132 3.132 0 00-.657-.503v2.712c0 .344.28.625.625.625h1.875a.625.625 0 110 1.25H8.75a1.877 1.877 0 01-1.875-1.875v-3.11a3.25 3.25 0 00-.303-.015H3.75a1.877 1.877 0 00-1.875 1.875v8.75c0 1.034.841 1.875 1.875 1.875h5.625c.346 0 .625.28.625.625zm3.553-4.208l-1.9-.317a.48.48 0 01-.403-.475c0-.344.28-.625.625-.625h1.418c.222 0 .43.12.541.313a.624.624 0 101.082-.626 1.88 1.88 0 00-1.624-.938h-.168v-.625a.625.625 0 10-1.25 0V8A1.877 1.877 0 0010 9.874c0 .85.61 1.57 1.447 1.708l1.9.317a.48.48 0 01.403.475c0 .345-.28.625-.625.625h-1.417a.63.63 0 01-.542-.312.623.623 0 10-1.081.626 1.88 1.88 0 001.623.936h.168v.625a.625.625 0 101.25 0v-.625A1.877 1.877 0 0015 12.374c0-.85-.609-1.568-1.447-1.707zm-8.866-.792h3.438a.625.625 0 100-1.25H4.687c-.86 0-1.562.701-1.562 1.563v1.25c0 .86.701 1.562 1.563 1.562h3.437a.625.625 0 100-1.25H4.687a.313.313 0 01-.312-.313v-1.25c0-.172.14-.312.313-.312zm-.937-2.5H5a.625.625 0 000-1.25H3.75a.625.625 0 000 1.25zm0-2.5H5a.625.625 0 000-1.25H3.75a.625.625 0 000 1.25z"/></g><defs><clipPath id="baa"><path transform="translate(0 .5)" d="M0 0h15v15H0z"/></clipPath></defs></svg><svg viewBox="0 0 12 12" id="donate" xmlns="http://www.w3.org/2000/svg"><g clip-path="url(#bba)"><path d="M12 10.25c0 .965-.785 1.75-1.75 1.75h-8.5c-1.976-.005-2.403-2.806-.543-3.405 2.262 3.175 7.324 3.174 9.585 0 .699.23 1.208.881 1.208 1.655zM11 5c0 2.757-2.243 5-5 5C-.624 9.748-.622.25 6 0c2.757 0 5 2.243 5 5zM8 6c0-.68-.487-1.255-1.158-1.367l-1.52-.253c-.544-.105-.32-.913.178-.88h1.134a.5.5 0 01.433.25.499.499 0 10.866-.5 1.505 1.505 0 00-1.3-.75H6.5V2c-.003-.654-.998-.653-1 0v.5c-1.718-.01-2.092 2.542-.343 2.867l1.52.253c.544.105.321.912-.177.88H5.366a.502.502 0 01-.434-.25.499.499 0 10-.865.5c.267.463.765.75 1.299.75H5.5V8c.003.654.997.653 1 0v-.5C7.327 7.5 8 6.827 8 6z"/></g><defs><clipPath id="bba"><path d="M0 0h12v12H0z"/></clipPath></defs></svg><svg viewBox="0 0 14 14" id="door-open" xmlns="http://www.w3.org/2000/svg"><g clip-path="url(#bca)"><path d="M11.667 12.832V2.916c0-.965-.785-1.75-1.75-1.75h-.694a1.735 1.735 0 00-.53-.77A1.748 1.748 0 007.24.034l-3.5.7a1.755 1.755 0 00-1.407 1.715v10.383H0V14h14v-1.167h-2.333zM7.292 7.728a.875.875 0 110-1.75.875.875 0 010 1.75zm3.208 5.104H9.333v-10.5h.584c.321 0 .583.262.583.584v9.917z"/></g><defs><clipPath id="bca"><path d="M0 0h14v14H0z"/></clipPath></defs></svg><svg viewBox="0 0 12 14" id="dots-vertical" xmlns="http://www.w3.org/2000/svg"><g clip-path="url(#bda)"><path d="M6.5 4a1.5 1.5 0 100-3 1.5 1.5 0 000 3zm0 4.5a1.5 1.5 0 100-3 1.5 1.5 0 000 3zm0 5a1.5 1.5 0 100-3 1.5 1.5 0 000 3z"/></g><defs><clipPath id="bda"><path transform="translate(0 .5)" d="M0 0h12v13H0z"/></clipPath></defs></svg><svg viewBox="0 0 24 24" id="favorite" xmlns="http://www.w3.org/2000/svg"><path d="M17.5 1.917a6.4 6.4 0 00-5.5 3.3 6.4 6.4 0 00-5.5-3.3A6.8 6.8 0 000 8.967c0 4.547 4.786 9.513 8.8 12.88a4.974 4.974 0 006.4 0c4.014-3.367 8.8-8.333 8.8-12.88a6.8 6.8 0 00-6.5-7.05z"/></svg><svg viewBox="0 0 24 24" id="favotite-stroke" xmlns="http://www.w3.org/2000/svg"><path d="M17.5 1.917a6.4 6.4 0 00-5.5 3.3 6.4 6.4 0 00-5.5-3.3A6.8 6.8 0 000 8.967c0 4.547 4.786 9.513 8.8 12.88a4.974 4.974 0 006.4 0c4.014-3.367 8.8-8.333 8.8-12.88a6.8 6.8 0 00-6.5-7.05zm-3.585 18.4a2.973 2.973 0 01-3.83 0C4.947 16.006 2 11.87 2 8.967a4.8 4.8 0 014.5-5.05 4.8 4.8 0 014.5 5.05 1 1 0 002 0 4.8 4.8 0 014.5-5.05 4.8 4.8 0 014.5 5.05c0 2.903-2.947 7.039-8.085 11.346z"/></svg><svg viewBox="0 0 21 20" id="filter" xmlns="http://www.w3.org/2000/svg"><path d="M12.063 13.438H3.624m13.751 0h-2.188M13.625 15a1.563 1.563 0 100-3.125 1.563 1.563 0 000 3.125zM7.063 6.563H3.624m13.751 0h-7.188M8.625 8.125a1.563 1.563 0 100-3.125 1.563 1.563 0 000 3.125z"/></svg><svg data-name="Layer 1" viewBox="0 0 24 24" id="fingerprint" xmlns="http://www.w3.org/2000/svg"><path d="M17 0H7C4.243 0 2 2.243 2 5v14c0 2.757 2.243 5 5 5h10c2.757 0 5-2.243 5-5V5c0-2.757-2.243-5-5-5zM7.5 4.5a1.5 1.5 0 11-.001 3.001A1.5 1.5 0 017.5 4.5zm0 15a1.5 1.5 0 11.001-3.001A1.5 1.5 0 017.5 19.5zm1.365-5.979A1.641 1.641 0 017.7 14c-.427 0-.855-.162-1.182-.487l-.681-.655a1 1 0 111.386-1.442l.472.454 1.866-1.815a.999.999 0 111.394 1.434l-2.091 2.034zM17 19h-5a1 1 0 010-2h5a1 1 0 010 2zm0-6h-3a1 1 0 010-2h3a1 1 0 010 2zm0-6h-5a1 1 0 010-2h5a1 1 0 010 2z"/></svg><svg viewBox="0 0 12 12" id="home" xmlns="http://www.w3.org/2000/svg"><g clip-path="url(#bia)"><path d="M6 7.496a1.5 1.5 0 00-1.5 1.5v3h3v-3a1.5 1.5 0 00-1.5-1.5z"/><path d="M8.5 8.996v3h2a1.5 1.5 0 001.5-1.5v-4.56a1 1 0 00-.281-.696L7.469.646a2 2 0 00-2.937 0L.291 5.238A1 1 0 000 5.943v4.553a1.5 1.5 0 001.5 1.5h2v-3c.01-1.363 1.11-2.476 2.44-2.508 1.373-.034 2.55 1.099 2.56 2.508z"/><path d="M6 7.496a1.5 1.5 0 00-1.5 1.5v3h3v-3a1.5 1.5 0 00-1.5-1.5z"/></g><defs><clipPath id="bia"><path d="M0 0h12v12H0z"/></clipPath></defs></svg><svg data-name="Layer 1" viewBox="0 0 24 24" id="house" xmlns="http://www.w3.org/2000/svg"><path d="M21.797 5.579l-7-4.724a4.98 4.98 0 00-5.594 0L2.204 5.579A4.992 4.992 0 000 9.724V19c0 2.757 2.243 5 5 5h14c2.757 0 5-2.243 5-5V9.724a4.995 4.995 0 00-2.203-4.145zM18 13.5c0 1.379-1.122 2.5-2.5 2.5H15v.5c0 1.379-1.122 2.5-2.5 2.5h-1A2.503 2.503 0 019 16.5V16h-.5A2.503 2.503 0 016 13.5v-1C6 11.121 7.122 10 8.5 10H9v-.5C9 8.121 10.122 7 11.5 7h1C13.878 7 15 8.121 15 9.5v.5h.5c1.378 0 2.5 1.121 2.5 2.5v1zm-2-1v1a.5.5 0 01-.5.5H14a1 1 0 00-1 1v1.5a.5.5 0 01-.5.5h-1a.5.5 0 01-.5-.5V15a1 1 0 00-1-1H8.5a.5.5 0 01-.5-.5v-1a.5.5 0 01.5-.5H10a1 1 0 001-1V9.5a.5.5 0 01.5-.5h1a.5.5 0 01.5.5V11a1 1 0 001 1h1.5a.5.5 0 01.5.5z"/></svg><svg viewBox="0 0 24 24" id="house-stroke" xmlns="http://www.w3.org/2000/svg"><path d="M11.875 16.25V12.5a.624.624 0 00-.625-.625h-2.5a.625.625 0 00-.625.625v3.75a.625.625 0 01-.625.625H3.75a.625.625 0 01-.625-.625V9.023a.648.648 0 01.203-.46l6.25-5.68a.625.625 0 01.844 0l6.25 5.68a.648.648 0 01.203.46v7.227a.624.624 0 01-.625.625H12.5a.624.624 0 01-.625-.625z"/><path d="M15.012 22v1h3.976v-4.032H23v-3.936h-4.012V11h-3.976v4.032H11v3.936h4.012V22z"/></svg><svg viewBox="0 0 20 20" id="info" xmlns="http://www.w3.org/2000/svg"><path d="M10 17.5a7.5 7.5 0 100-15 7.5 7.5 0 000 15z"/><path d="M9.375 9.375H10v4.375h.625M9.844 7.344a.781.781 0 100-1.563.781.781 0 000 1.563z"/></svg><svg viewBox="0 0 12 12" id="key" xmlns="http://www.w3.org/2000/svg"><path d="M7.993 6.35V5a.5.5 0 01.5-.5h.5a.5.5 0 00.5-.5v-.5a.5.5 0 01.5-.5h1.343a.509.509 0 00.462-.3 2.26 2.26 0 00.188-1.188A1.745 1.745 0 0010.232 0a2.27 2.27 0 00-1.605.665L4.672 4.618a3.751 3.751 0 00-3.386 6.46 3.752 3.752 0 002.855.902 3.766 3.766 0 003.215-2.715 3.67 3.67 0 00.024-1.94L7.705 7a.992.992 0 00.288-.65zM2.746 10a.75.75 0 110-1.501.75.75 0 010 1.501z"/></svg><svg viewBox="0 0 16 17" id="lightning" xmlns="http://www.w3.org/2000/svg"><path d="M13.488 7.89a.5.5 0 00-.312-.357l-3.6-1.35.912-4.581a.506.506 0 00-.256-.544.494.494 0 00-.594.1l-7 7.5a.494.494 0 00-.012.673c.054.062.123.11.2.14l3.6 1.35-.913 4.58a.506.506 0 00.256.544.495.495 0 00.594-.1l7-7.5a.493.493 0 00.125-.456z"/></svg><svg viewBox="0 0 14 13" id="like" xmlns="http://www.w3.org/2000/svg"><path fill-rule="evenodd" clip-rule="evenodd" d="M.072 5.3l.703 5.626a1.412 1.412 0 001.395 1.23h9.955a.937.937 0 00.938-.937V6.063a.938.938 0 00-.938-.938h-2.52L7.391.695a.48.48 0 00-.422-.257A2.35 2.35 0 004.625 2.78v.938H1.467A1.4 1.4 0 00.072 5.3zm5.753-2.517v2.136H1.462a.2.2 0 00-.2.226l.001.007.702 5.62v.001a.212.212 0 00.209.183H8.58V5.76L6.56 1.715a1.15 1.15 0 00-.734 1.068zm3.956 8.436h2.344V6.063H9.781v5.156z"/></svg><svg viewBox="0 0 25 24" id="like-two" xmlns="http://www.w3.org/2000/svg"><path d="M14.5 6.75v1h6.05a1.287 1.287 0 01.94.42 1.298 1.298 0 01.302.991v.003l-1.124 8.989v.002a1.26 1.26 0 01-1.242 1.095H8.25V9.799l.176-.352 3.471-6.943A2.76 2.76 0 0114.5 5.251V6.75z"/></svg><svg viewBox="0 0 15 15" id="list" xmlns="http://www.w3.org/2000/svg"><g clip-path="url(#bqa)"><path d="M5 4.375h9.063a.937.937 0 000-1.875H5a.937.937 0 100 1.875zm9.063 2.5H5A.937.937 0 105 8.75h9.063a.937.937 0 000-1.875zm0 4.375H5a.938.938 0 000 1.875h9.063a.938.938 0 000-1.875zM1.563 5a1.563 1.563 0 100-3.125 1.563 1.563 0 000 3.125zm0 4.063a1.563 1.563 0 100-3.126 1.563 1.563 0 000 3.125zm0 4.375a1.563 1.563 0 100-3.126 1.563 1.563 0 000 3.126z"/></g><defs><clipPath id="bqa"><path d="M0 0h15v15H0z"/></clipPath></defs></svg><svg viewBox="0 0 15 15" id="list-check" xmlns="http://www.w3.org/2000/svg"><g clip-path="url(#bra)"><path d="M2.5 4.372A2.173 2.173 0 01.951 3.73l-.991-.99 1.326-1.327.99.99a.313.313 0 00.443 0L4.96.165 6.288 1.49 4.046 3.73a2.173 2.173 0 01-1.547.642zM15 1.247H7.5v1.875H15V1.247zM4.045 8.73l2.242-2.24-1.326-1.326L2.72 7.405a.312.312 0 01-.442 0l-.99-.99L-.04 7.74l.991.99a2.188 2.188 0 003.094 0zm10.953-2.484H7.5v1.875H15V6.247zM4.046 13.73l2.241-2.241-1.326-1.326-2.241 2.241a.312.312 0 01-.442 0l-.99-.99L-.04 12.74l.991.99a2.188 2.188 0 003.094 0zm10.953-2.484H7.5v1.875H15v-1.875z"/></g><defs><clipPath id="bra"><path d="M0 0h15v15H0z"/></clipPath></defs></svg><svg viewBox="0 0 8 10" id="location" xmlns="http://www.w3.org/2000/svg"><path d="M0 4.183C0 1.889 1.758 0 4 0c2.234 0 4 1.907 4 4.183 0 .224-.023.452-.067.683-.2 1.047-.823 2.13-1.734 3.214a15.001 15.001 0 01-1.742 1.75.702.702 0 01-.902.01 13.78 13.78 0 01-.553-.493c-.409-.384-.818-.81-1.2-1.266C.892 6.998.269 5.917.068 4.871A3.645 3.645 0 010 4.184zm4 1.65c.884 0 1.6-.746 1.6-1.666C5.6 3.247 4.884 2.5 4 2.5c-.884 0-1.6.746-1.6 1.667 0 .92.716 1.666 1.6 1.666z"/></svg><svg viewBox="0 0 19 18" id="location-two" xmlns="http://www.w3.org/2000/svg"><path d="M9.5 9a3 3 0 100-6 3 3 0 000 6zm0-4.5a1.5 1.5 0 110 3 1.5 1.5 0 010-3zm6.495 2.368l-.54-.18A6 6 0 009.5 0a5.995 5.995 0 00-5.935 6.819 3.784 3.784 0 00-1.911.975A3.71 3.71 0 00.5 10.5v3.056a3.76 3.76 0 002.7 3.6l2.153.675a3.759 3.759 0 002.133.029l4.334-1.282a2.24 2.24 0 011.18 0l1.79.6a3.001 3.001 0 003.71-2.912v-3.862a3.761 3.761 0 00-2.505-3.537zM6.319 2.82a4.49 4.49 0 016.362 0 4.528 4.528 0 01.009 6.375l-2.665 2.592a.744.744 0 01-1.042 0L6.32 9.208a4.53 4.53 0 010-6.386zM17 14.267a1.493 1.493 0 01-.573 1.179 1.476 1.476 0 01-1.22.296l-1.758-.591a3.767 3.767 0 00-2.038-.012L7.073 16.42a2.25 2.25 0 01-1.27-.022l-2.171-.675A2.26 2.26 0 012 13.556V10.5a2.223 2.223 0 01.69-1.622 2.268 2.268 0 011.252-.605c.302.75.752 1.43 1.324 2.002l2.675 2.59a2.237 2.237 0 003.13 0l2.672-2.598a5.97 5.97 0 001.36-2.115l.403.133A2.254 2.254 0 0117 10.404v3.862z"/></svg><svg viewBox="0 0 12 12" id="money-check-edit" xmlns="http://www.w3.org/2000/svg"><g clip-path="url(#bua)"><path d="M8.291 6.5H7v-1h2.31a2.25 2.25 0 011.421-.5c.46 0 .898.135 1.269.386V2.5c0-.827-.673-1.5-1.5-1.5h-9C.673 1 0 1.673 0 2.5V11h5V9.79L8.291 6.5zM7 3.5h3v1H7v-1zM4.178 6.62l-1.52-.253A1.38 1.38 0 011.5 5c0-.827.673-1.5 1.5-1.5V3h1v.5c.827 0 1.5.673 1.5 1.5h-1a.5.5 0 00-.5-.5H3a.5.5 0 00-.5.5c0 .189.135.349.322.38l1.52.253A1.38 1.38 0 015.5 7c0 .827-.673 1.5-1.5 1.5V9H3v-.5c-.827 0-1.5-.673-1.5-1.5h1a.5.5 0 00.5.5h1a.5.5 0 00.5-.5.384.384 0 00-.322-.38zm7.823.649c0 .339-.133.658-.372.897L7.795 12H6v-1.795l3.834-3.833a1.27 1.27 0 012.167.897z"/></g><defs><clipPath id="bua"><path d="M0 0h12v12H0z"/></clipPath></defs></svg><svg viewBox="0 0 12 12" id="new-buildings" xmlns="http://www.w3.org/2000/svg"><path d="M5.5 0h-4A1.5 1.5 0 000 1.5V12h7V1.5A1.5 1.5 0 005.5 0zM3 9.5H1.5v-1H3v1zm0-2H1.5v-1H3v1zm0-2H1.5v-1H3v1zm0-2H1.5v-1H3v1zm2.5 6H4v-1h1.5v1zm0-2H4v-1h1.5v1zm0-2H4v-1h1.5v1zm0-2H4v-1h1.5v1zm5-1H8V12h4V4a1.5 1.5 0 00-1.5-1.5zm0 7h-1v-1h1v1zm0-2h-1v-1h1v1zm0-2h-1v-1h1v1z"/></svg><svg viewBox="0 0 11 11" id="path" xmlns="http://www.w3.org/2000/svg"><path fill-rule="evenodd" clip-rule="evenodd" d="M8.594 8.313a.281.281 0 100 .562.281.281 0 000-.563zm-1.781.28a1.781 1.781 0 113.562 0 1.781 1.781 0 01-3.563 0z"/><path fill-rule="evenodd" clip-rule="evenodd" d="M2.344 2.406a.75.75 0 01.75-.75h4.125a2.125 2.125 0 110 4.25H3.094a.969.969 0 100 1.938h4.469a.75.75 0 010 1.5h-4.47a2.469 2.469 0 010-4.938H7.22a.625.625 0 000-1.25H3.094a.75.75 0 01-.75-.75z"/></svg><svg viewBox="0 0 12 12" id="pause" xmlns="http://www.w3.org/2000/svg"><g clip-path="url(#bxa)"><path d="M0 8.75a1.75 1.75 0 001.75 1.75h8.5a1.75 1.75 0 000-3.5h-8.5A1.75 1.75 0 000 8.75zm0-5.5A1.75 1.75 0 001.75 5h8.5a1.75 1.75 0 000-3.5h-8.5A1.75 1.75 0 000 3.25z"/></g><defs><clipPath id="bxa"><path transform="rotate(-90 6 6)" d="M0 0h12v12H0z"/></clipPath></defs></svg><svg data-name="Layer 1" viewBox="0 0 24 24" id="phone" xmlns="http://www.w3.org/2000/svg"><path d="M13 1a1 1 0 011-1 10.011 10.011 0 0110 10 1 1 0 01-2 0 8.009 8.009 0 00-8-8 1 1 0 01-1-1zm1 5a4 4 0 014 4 1 1 0 002 0 6.006 6.006 0 00-6-6 1 1 0 000 2zm9.093 10.739a3.1 3.1 0 010 4.378l-.91 1.049c-8.19 7.841-28.12-12.084-20.4-20.3l1.15-1a3.081 3.081 0 014.327.04c.031.031 1.884 2.438 1.884 2.438a3.1 3.1 0 01-.007 4.282L7.979 9.082a12.781 12.781 0 006.931 6.945l1.465-1.165a3.1 3.1 0 014.281-.006s2.406 1.852 2.437 1.883zm-1.376 1.454s-2.393-1.841-2.424-1.872a1.1 1.1 0 00-1.549 0c-.027.028-2.044 1.635-2.044 1.635a1 1 0 01-.979.152A15.009 15.009 0 015.9 9.3a1 1 0 01.145-1s1.607-2.018 1.634-2.044a1.1 1.1 0 000-1.549c-.031-.03-1.872-2.425-1.872-2.425a1.1 1.1 0 00-1.51.039l-1.15 1C-2.495 10.105 14.776 26.418 20.721 20.8l.911-1.05a1.121 1.121 0 00.085-1.557z"/></svg><svg viewBox="0 0 16 16" id="play" xmlns="http://www.w3.org/2000/svg"><path d="M14.519 7.144l-9-5.494a.969.969 0 00-1.006-.018A.988.988 0 004 2.5v11a.987.987 0 00.513.87.968.968 0 001.006-.02l9-5.493a1 1 0 000-1.713z" fill-opacity=".5"/></svg><svg viewBox="0 0 11 11" id="plus" xmlns="http://www.w3.org/2000/svg"><path fill-rule="evenodd" clip-rule="evenodd" d="M.719 5.5a1 1 0 011-1H9.28a1 1 0 010 2H1.72a1 1 0 01-1-1z"/><path fill-rule="evenodd" clip-rule="evenodd" d="M5.5.719a1 1 0 011 1V9.28a1 1 0 01-2 0V1.72a1 1 0 011-1z"/></svg><svg viewBox="0 0 20 20" id="prohibit" xmlns="http://www.w3.org/2000/svg"><path fill-rule="evenodd" clip-rule="evenodd" d="M10 3.25a6.75 6.75 0 100 13.5 6.75 6.75 0 000-13.5zM1.75 10a8.25 8.25 0 1116.5 0 8.25 8.25 0 01-16.5 0z"/><path fill-rule="evenodd" clip-rule="evenodd" d="M4.165 4.165a.75.75 0 011.06 0l10.61 10.61a.75.75 0 11-1.06 1.06L4.164 5.225a.75.75 0 010-1.06z"/></svg><svg viewBox="0 0 20 20" id="search" xmlns="http://www.w3.org/2000/svg"><path fill-rule="evenodd" clip-rule="evenodd" d="M9.063 3.25a5.812 5.812 0 100 11.625 5.812 5.812 0 000-11.625zM1.75 9.063a7.313 7.313 0 1114.625 0 7.313 7.313 0 01-14.625 0z"/><path fill-rule="evenodd" clip-rule="evenodd" d="M13.173 13.173a.75.75 0 011.06 0l3.797 3.797a.75.75 0 11-1.06 1.06l-3.797-3.797a.75.75 0 010-1.06z"/></svg><svg viewBox="0 0 16 17" id="settings" xmlns="http://www.w3.org/2000/svg"><path d="M14.675 9.902l-.931-1.238c.006-.112 0-.23 0-.318l.93-1.244a.487.487 0 00.082-.431 7.174 7.174 0 00-.681-1.65.512.512 0 00-.363-.25l-1.53-.22-.232-.23-.219-1.532a.524.524 0 00-.244-.362 7.343 7.343 0 00-1.656-.681.488.488 0 00-.431.08l-1.238.926h-.325L6.6 1.827a.488.488 0 00-.431-.081 7.176 7.176 0 00-1.65.68.513.513 0 00-.25.363l-.22 1.532-.23.23-1.532.22a.513.513 0 00-.362.25 7.175 7.175 0 00-.681 1.65.488.488 0 00.08.43l.932 1.238v.32l-.931 1.243a.488.488 0 00-.081.431 7.2 7.2 0 00.68 1.65.513.513 0 00.363.25l1.532.219.23.231.22 1.531a.513.513 0 00.25.363c.52.295 1.073.524 1.65.681a.481.481 0 00.431-.081l1.237-.925h.325l1.238.925a.487.487 0 00.431.081 7.062 7.062 0 001.65-.681.512.512 0 00.25-.363l.219-1.537c.075-.075.162-.156.225-.225l1.537-.219a.513.513 0 00.363-.25 7.16 7.16 0 00.681-1.65.487.487 0 00-.081-.431zM8 11.252a2.75 2.75 0 110-5.5 2.75 2.75 0 010 5.5z"/></svg><svg viewBox="0 0 17 17" id="share" xmlns="http://www.w3.org/2000/svg"><g clip-path="url(#cea)"><path d="M13.389 10.278a3.106 3.106 0 00-2.56 1.35L6.49 9.668a3.05 3.05 0 00.003-2.325l4.334-1.97a3.107 3.107 0 10-.552-1.761c.003.175.021.35.054.524L5.722 6.229a3.112 3.112 0 10-.01 4.551l4.619 2.086c-.032.172-.05.347-.053.523a3.111 3.111 0 103.11-3.11zm0-8.445a1.778 1.778 0 11.001 3.557 1.778 1.778 0 01-.001-3.556zM3.61 10.278a1.778 1.778 0 110-3.557 1.778 1.778 0 010 3.557zm9.778 4.889a1.778 1.778 0 110-3.555 1.778 1.778 0 010 3.555z"/></g><defs><clipPath id="cea"><path transform="translate(.5 .5)" d="M0 0h16v16H0z"/></clipPath></defs></svg><svg viewBox="0 0 12 12" id="shield" xmlns="http://www.w3.org/2000/svg"><g clip-path="url(#cfa)"><path d="M9.972 1.32L6 .004 2.028 1.32A1.5 1.5 0 001 2.744V6c0 3.762 4.6 5.84 4.797 5.926l.177.079.184-.061C6.355 11.877 11 10.288 11 5.999V2.744A1.5 1.5 0 009.972 1.32z"/></g><defs><clipPath id="cfa"><path d="M0 0h12v12H0z"/></clipPath></defs></svg><svg viewBox="0 0 15 15" id="shopping-bag" xmlns="http://www.w3.org/2000/svg"><g clip-path="url(#cga)"><path d="M15 5.625a1.875 1.875 0 00-1.875-1.875H11.25a3.75 3.75 0 00-7.5 0H1.875A1.875 1.875 0 000 5.625v6.25A3.129 3.129 0 003.125 15h8.75A3.129 3.129 0 0015 11.875v-6.25zM5 3.75a2.5 2.5 0 115 0H5z"/></g><defs><clipPath id="cga"><path d="M0 0h15v15H0z"/></clipPath></defs></svg><svg data-name="Layer 1" viewBox="0 0 24 24" id="sign-in" xmlns="http://www.w3.org/2000/svg"><path d="M11.5 16a1.5 1.5 0 00-1.5 1.5v.8A2.7 2.7 0 017.3 21H5.7A2.7 2.7 0 013 18.3V5.7A2.7 2.7 0 015.7 3h1.6A2.7 2.7 0 0110 5.7v.8a1.5 1.5 0 003 0v-.8A5.706 5.706 0 007.3 0H5.7A5.706 5.706 0 000 5.7v12.6A5.706 5.706 0 005.7 24h1.6a5.706 5.706 0 005.7-5.7v-.8a1.5 1.5 0 00-1.5-1.5z"/><path d="M22.561 9.525l-4.586-4.586a1.5 1.5 0 00-2.121 2.122l3.411 3.411L7 10.5a1.5 1.5 0 000 3l12.318-.028-3.467 3.467a1.5 1.5 0 002.121 2.122l4.586-4.586a3.505 3.505 0 00.003-4.95z"/></svg><svg viewBox="0 0 17 15" id="star" xmlns="http://www.w3.org/2000/svg"><path d="M8.5 0l2.586 4.44 5.022 1.088-3.423 3.832.517 5.112L8.5 12.4l-4.702 2.072.517-5.112L.892 5.528 5.914 4.44 8.5 0z"/></svg><svg viewBox="0 0 16 15" id="star-default" xmlns="http://www.w3.org/2000/svg"><path d="M8 0l2.586 4.44 5.022 1.088-3.423 3.832.517 5.112L8 12.4l-4.702 2.072.517-5.112L.392 5.528 5.414 4.44 8 0z"/></svg><svg viewBox="0 0 24 24" id="telegram" xmlns="http://www.w3.org/2000/svg"><path d="M12 0C5.373 0 0 5.373 0 12s5.373 12 12 12 12-5.373 12-12S18.627 0 12 0zm5.562 8.161c-.18 1.897-.962 6.502-1.359 8.627-.168.9-.5 1.201-.82 1.23-.697.064-1.226-.461-1.901-.903-1.056-.692-1.653-1.123-2.678-1.799-1.185-.781-.417-1.21.258-1.911.177-.184 3.247-2.977 3.307-3.23.007-.032.015-.15-.056-.212s-.174-.041-.248-.024c-.106.024-1.793 1.139-5.062 3.345-.479.329-.913.489-1.302.481-.428-.009-1.252-.242-1.865-.442-.751-.244-1.349-.374-1.297-.788.027-.216.324-.437.892-.663a585.592 585.592 0 016.998-3.015c3.333-1.386 4.025-1.627 4.477-1.635.566-.008.702.459.656.939z"/></svg><svg data-name="Layer 1" viewBox="0 0 24 24" id="tg" xmlns="http://www.w3.org/2000/svg"><circle cx="7" cy="22" r="2"/><circle cx="17" cy="22" r="2"/><path d="M22.813 9.583A6 6 0 0112.8 3H4.242L4.2 2.648A3 3 0 001.222 0H0v2h1.222a1 1 0 01.993.883L3.8 16.351A3 3 0 006.778 19H20v-2H6.778a1 1 0 01-.993-.884L5.654 15h16.182z"/><path d="M21 5h-2V3h-2v2h-2v2h2v2h2V7h2V5z"/></svg><svg viewBox="0 0 20 20" id="thumbtack" xmlns="http://www.w3.org/2000/svg"><g clip-path="url(#cma)"><path d="M.833 20a.834.834 0 00.59-.244l5.515-5.516 1.04 1.077a4.307 4.307 0 003.004 1.345c.38 0 .758-.063 1.116-.19a3.025 3.025 0 002.03-2.601 7.08 7.08 0 00-.186-2.523l-.178-.868a.834.834 0 01.22-.786l1.322-1.323a.283.283 0 01.197-.083.142.142 0 01.14.054 2.564 2.564 0 003.308.36 2.5 2.5 0 00.316-3.804l-4.1-4.103a2.571 2.571 0 00-3.282-.333 2.5 2.5 0 00-.317 3.804l.064.063a.257.257 0 010 .362l-1.334 1.333a.834.834 0 01-.795.218l-.68-.174a7.193 7.193 0 00-2.569-.195 3.22 3.22 0 00-2.713 2.155 3.333 3.333 0 00.774 3.5l1.465 1.517-5.536 5.533A.833.833 0 00.834 20zm4.28-11.417A1.547 1.547 0 016.426 7.53a5.584 5.584 0 011.979.15l.685.176a2.508 2.508 0 002.386-.654l1.333-1.334a1.925 1.925 0 000-2.718l-.064-.063a.834.834 0 01.112-1.274.903.903 0 011.13.159l4.104 4.103a.834.834 0 01-.112 1.273.904.904 0 01-1.14-.166 1.843 1.843 0 00-1.32-.56 2 2 0 00-1.39.57L12.81 8.514a2.5 2.5 0 00-.667 2.334l.183.881c.168.643.22 1.31.15 1.972a1.38 1.38 0 01-.928 1.203 2.333 2.333 0 01-2.376-.75l-3.666-3.791a1.69 1.69 0 01-.393-1.78z"/></g><defs><clipPath id="cma"><path d="M0 0h20v20H0z"/></clipPath></defs></svg><svg viewBox="0 0 15 15" id="time" xmlns="http://www.w3.org/2000/svg"><path d="M15 4.375V5H0v-.625C0 2.649 1.4 1.25 3.125 1.25h.625V.625a.625.625 0 011.25 0v.625h5V.625a.625.625 0 011.25 0v.625h.625C13.601 1.25 15 2.65 15 4.375zm0 6.25A4.38 4.38 0 0110.625 15a4.38 4.38 0 01-4.375-4.375 4.38 4.38 0 014.375-4.375A4.38 4.38 0 0115 10.625zm-3.125.366l-.625-.625v-.991a.625.625 0 00-1.25 0v1.25c0 .166.066.325.183.442l.808.808a.625.625 0 00.884-.884zM5 10.625A5.61 5.61 0 017.093 6.25H0v5.625C0 13.601 1.4 15 3.125 15h3.968A5.612 5.612 0 015 10.625z"/></svg><svg viewBox="0 0 11 11" id="trash" xmlns="http://www.w3.org/2000/svg"><path fill-rule="evenodd" clip-rule="evenodd" d="M1.219 2.406a.5.5 0 01.5-.5H9.28a.5.5 0 010 1H1.72a.5.5 0 01-.5-.5zm3.25 1.563a.5.5 0 01.5.5v2.75a.5.5 0 01-1 0v-2.75a.5.5 0 01.5-.5zm2.062 0a.5.5 0 01.5.5v2.75a.5.5 0 01-1 0v-2.75a.5.5 0 01.5-.5z"/><path fill-rule="evenodd" clip-rule="evenodd" d="M2.406 1.906a.5.5 0 01.5.5v6.375h5.188V2.406a.5.5 0 011 0v6.531a.844.844 0 01-.844.844h-5.5a.844.844 0 01-.844-.844v-6.53a.5.5 0 01.5-.5z"/><path fill-rule="evenodd" clip-rule="evenodd" d="M3.63.88a1.18 1.18 0 01.839-.349H6.53A1.188 1.188 0 017.72 1.72v.687a.5.5 0 01-1 0V1.72a.187.187 0 00-.188-.188H4.47a.187.187 0 00-.188.188v.687a.5.5 0 01-1 0V1.72c0-.315.125-.617.348-.84z"/></svg><svg viewBox="0 0 12 12" id="users-alt" xmlns="http://www.w3.org/2000/svg"><path d="M6 8a2 2 0 110-4 2 2 0 010 4zM2.841 8H.5a.5.5 0 01-.5-.5 3.011 3.011 0 012.566-2.958.5.5 0 01.55.633 2.968 2.968 0 00.178 2.11.5.5 0 01-.451.715h-.002zM8.5 12h-5a.5.5 0 01-.5-.5 3 3 0 016 0 .5.5 0 01-.5.5zM9 4a2 2 0 110-4 2 2 0 010 4zM3 4a2 2 0 110-4 2 2 0 010 4zm8.5 4H9.159a.5.5 0 01-.45-.715 2.969 2.969 0 00.173-2.11.5.5 0 01.553-.633A3.01 3.01 0 0112 7.5a.5.5 0 01-.5.5z"/></svg><svg viewBox="0 0 20 20" id="vk" xmlns="http://www.w3.org/2000/svg"><path fill-rule="evenodd" clip-rule="evenodd" d="M0 10C0 4.477 4.477 0 10 0s10 4.477 10 10-4.477 10-10 10S0 15.523 0 10z"/><path fill-rule="evenodd" clip-rule="evenodd" d="M10.603 13.816s.222-.024.336-.145c.104-.11.1-.319.1-.319s-.013-.972.445-1.116c.451-.141 1.031.94 1.646 1.357.465.314.818.246.818.246l1.644-.023s.86-.052.452-.719c-.034-.054-.238-.493-1.222-1.394-1.031-.943-.893-.79.348-2.422.756-.994 1.059-1.6.964-1.86-.09-.248-.646-.182-.646-.182l-1.85.011s-.138-.018-.24.042c-.099.059-.163.196-.163.196s-.293.768-.683 1.423c-.824 1.379-1.154 1.452-1.288 1.366-.314-.2-.236-.802-.236-1.23 0-1.337.206-1.895-.4-2.039-.201-.048-.35-.08-.864-.085-.66-.006-1.219.003-1.536.155-.21.102-.373.328-.274.342.123.016.4.073.546.27.19.255.183.826.183.826s.11 1.574-.254 1.77c-.25.133-.591-.14-1.326-1.392-.377-.641-.66-1.35-.66-1.35s-.055-.132-.154-.203a.764.764 0 00-.284-.113l-1.758.011s-.264.007-.361.12c-.086.1-.007.31-.007.31s1.377 3.175 2.936 4.776c1.43 1.467 3.053 1.371 3.053 1.371h.735z"/></svg><svg viewBox="0 0 20 20" id="warning" xmlns="http://www.w3.org/2000/svg"><path d="M9.167 10.832v-5c0-.458.375-.833.833-.833.458 0 .833.375.833.833v5a.836.836 0 01-.833.833.836.836 0 01-.833-.833zM10 12.499c-.692 0-1.25.558-1.25 1.25a1.25 1.25 0 101.25-1.25zm9.65 4.066c-.583 1.125-1.808 1.767-3.342 1.767H3.7c-1.542 0-2.758-.642-3.342-1.767-.591-1.133-.425-2.583.417-3.8l6.7-10.6A3.06 3.06 0 0110 .832c1 0 1.933.483 2.5 1.308l6.733 10.642c.842 1.217 1 2.658.409 3.783h.008zm-1.792-2.85s-.017-.016-.017-.033L11.117 3.057A1.366 1.366 0 0010 2.499a1.36 1.36 0 00-1.133.591L2.158 13.682c-.516.733-.633 1.533-.333 2.108.292.567.958.875 1.867.875h12.6c.908 0 1.574-.308 1.866-.875.3-.575.183-1.375-.308-2.075h.008z"/></svg><svg viewBox="0 0 24 24" id="wh" xmlns="http://www.w3.org/2000/svg"><path d="M20.463 3.488A11.817 11.817 0 0012.05 0C5.495 0 .16 5.334.157 11.892a11.87 11.87 0 001.588 5.946L.057 24l6.304-1.654a11.88 11.88 0 005.683 1.448h.005c6.554 0 11.89-5.335 11.893-11.893a11.817 11.817 0 00-3.479-8.413zM12.05 21.785h-.004a9.86 9.86 0 01-5.031-1.378l-.361-.214-3.741.981.999-3.648-.235-.374a9.855 9.855 0 01-1.511-5.26c.002-5.45 4.437-9.884 9.889-9.884 2.64 0 5.122 1.03 6.988 2.898a9.827 9.827 0 012.892 6.993c-.003 5.452-4.437 9.886-9.885 9.886zm5.422-7.403c-.297-.149-1.758-.868-2.031-.967-.272-.099-.47-.149-.669.148s-.767.967-.941 1.166c-.173.198-.347.223-.644.074-.297-.149-1.255-.462-2.39-1.475-.883-.788-1.48-1.761-1.653-2.059s-.018-.458.13-.606c.134-.133.297-.347.446-.521.15-.172.199-.296.299-.495.099-.198.05-.372-.025-.521-.075-.148-.669-1.611-.916-2.206-.241-.58-.486-.501-.669-.51-.173-.009-.371-.01-.57-.01-.198 0-.52.074-.792.372s-1.04 1.017-1.04 2.479c0 1.463 1.065 2.876 1.213 3.074.148.198 2.095 3.2 5.076 4.487.709.306 1.263.489 1.694.626.712.226 1.36.194 1.872.118.571-.085 1.758-.719 2.006-1.413.248-.694.248-1.29.173-1.413-.074-.125-.272-.199-.569-.348z"/></svg><svg viewBox="0 0 20 20" id="x" xmlns="http://www.w3.org/2000/svg"><path fill-rule="evenodd" clip-rule="evenodd" d="M16.155 3.845a.75.75 0 010 1.06l-11.25 11.25a.75.75 0 01-1.06-1.06l11.25-11.25a.75.75 0 011.06 0z"/><path fill-rule="evenodd" clip-rule="evenodd" d="M3.845 3.845a.75.75 0 011.06 0l11.25 11.25a.75.75 0 11-1.06 1.06L3.845 4.905a.75.75 0 010-1.06z"/></svg></svg>