<svg width="185" height="32" viewBox="0 0 185 32" fill="none" xmlns="http://www.w3.org/2000/svg">
<path d="M51.44 22V9.76H61.736V22H59.54V11.812H53.636V22H51.44ZM64.3896 25.492V13.288H66.4416V14.386C66.7176 13.978 67.1016 13.666 67.5936 13.45C68.0856 13.222 68.6256 13.108 69.2136 13.108C69.7296 13.108 70.2156 13.204 70.6716 13.396C71.1396 13.588 71.5356 13.87 71.8596 14.242C72.1956 14.614 72.4596 15.082 72.6516 15.646C72.8556 16.198 72.9576 16.834 72.9576 17.554C72.9576 19.042 72.5796 20.188 71.8236 20.992C71.0676 21.784 70.1016 22.18 68.9256 22.18C68.4096 22.18 67.9416 22.102 67.5216 21.946C67.1016 21.778 66.7476 21.544 66.4596 21.244V25.492H64.3896ZM66.4596 18.346C66.4596 18.97 66.6756 19.474 67.1076 19.858C67.5396 20.23 68.0736 20.416 68.7096 20.416C69.3696 20.416 69.8976 20.17 70.2936 19.678C70.6896 19.174 70.8876 18.49 70.8876 17.626C70.8876 16.786 70.6896 16.12 70.2936 15.628C69.9096 15.124 69.3756 14.872 68.6916 14.872C68.0916 14.872 67.5696 15.076 67.1256 15.484C66.6816 15.892 66.4596 16.456 66.4596 17.176V18.346ZM78.6462 22.18C77.3622 22.18 76.3242 21.778 75.5322 20.974C74.7402 20.17 74.3442 19.054 74.3442 17.626C74.3442 16.198 74.7342 15.088 75.5142 14.296C76.3062 13.504 77.3502 13.108 78.6462 13.108C79.9542 13.108 80.9922 13.504 81.7602 14.296C82.5402 15.088 82.9302 16.198 82.9302 17.626C82.9302 19.042 82.5402 20.158 81.7602 20.974C80.9922 21.778 79.9542 22.18 78.6462 22.18ZM78.6462 20.434C79.3662 20.434 79.9182 20.194 80.3022 19.714C80.6862 19.222 80.8782 18.526 80.8782 17.626C80.8782 16.726 80.6862 16.042 80.3022 15.574C79.9182 15.094 79.3662 14.854 78.6462 14.854C77.9502 14.854 77.3982 15.094 76.9902 15.574C76.5942 16.042 76.3962 16.726 76.3962 17.626C76.3962 18.526 76.6002 19.222 77.0082 19.714C77.4162 20.194 77.9622 20.434 78.6462 20.434ZM83.506 20.164H84.442C84.718 19.936 84.946 19.624 85.126 19.228C85.306 18.82 85.408 18.37 85.432 17.878C85.456 17.434 85.474 16.858 85.486 16.15C85.498 15.43 85.51 14.476 85.522 13.288H92.236V20.164H93.568V24.412H91.552V22H85.54V24.412H83.506V20.164ZM87.358 18.022C87.322 18.49 87.238 18.898 87.106 19.246C86.974 19.594 86.818 19.9 86.638 20.164H90.166V15.124H87.412C87.412 15.712 87.406 16.27 87.394 16.798C87.394 17.314 87.382 17.722 87.358 18.022ZM100.249 22V21.01C99.9731 21.382 99.6071 21.67 99.1511 21.874C98.7071 22.078 98.1971 22.18 97.6211 22.18C96.7451 22.18 96.0251 21.952 95.4611 21.496C94.8971 21.04 94.6151 20.404 94.6151 19.588C94.6151 18.688 94.9091 18.034 95.4971 17.626C96.0971 17.206 96.9011 16.972 97.9091 16.924C98.3171 16.9 98.7071 16.894 99.0791 16.906C99.4511 16.906 99.8111 16.912 100.159 16.924V16.24C100.159 15.736 100.009 15.37 99.7091 15.142C99.4091 14.914 99.0191 14.8 98.5391 14.8C98.0591 14.8 97.6811 14.92 97.4051 15.16C97.1291 15.4 96.9311 15.724 96.8111 16.132L94.9031 15.808C95.0591 15.028 95.4491 14.386 96.0731 13.882C96.6971 13.366 97.5311 13.108 98.5751 13.108C99.6071 13.108 100.465 13.348 101.149 13.828C101.833 14.296 102.175 15.106 102.175 16.258V22H100.249ZM100.159 18.31C99.8711 18.298 99.5531 18.298 99.2051 18.31C98.8571 18.31 98.5151 18.316 98.1791 18.328C97.7111 18.34 97.3391 18.442 97.0631 18.634C96.7991 18.826 96.6671 19.102 96.6671 19.462C96.6671 19.822 96.7931 20.104 97.0451 20.308C97.2971 20.5 97.6331 20.596 98.0531 20.596C98.6651 20.596 99.1691 20.452 99.5651 20.164C99.9611 19.864 100.159 19.474 100.159 18.994V18.31ZM104.52 22V13.288H107.58L110.046 19.822L112.494 13.288H115.446V22H113.484V15.34L110.928 22H108.912L106.356 15.376V22H104.52ZM127.348 22.18C126.46 22.18 125.644 22.048 124.9 21.784C124.168 21.508 123.538 21.106 123.01 20.578C122.482 20.05 122.068 19.396 121.768 18.616C121.48 17.824 121.336 16.912 121.336 15.88C121.336 14.872 121.48 13.972 121.768 13.18C122.068 12.388 122.482 11.728 123.01 11.2C123.538 10.672 124.168 10.27 124.9 9.994C125.644 9.718 126.46 9.58 127.348 9.58C128.248 9.58 129.07 9.718 129.814 9.994C130.558 10.27 131.188 10.672 131.704 11.2C132.232 11.728 132.64 12.388 132.928 13.18C133.228 13.972 133.378 14.872 133.378 15.88C133.378 16.912 133.228 17.824 132.928 18.616C132.64 19.396 132.232 20.05 131.704 20.578C131.188 21.106 130.558 21.508 129.814 21.784C129.07 22.048 128.248 22.18 127.348 22.18ZM127.348 20.218C128.56 20.218 129.496 19.828 130.156 19.048C130.816 18.256 131.146 17.2 131.146 15.88C131.146 14.548 130.816 13.492 130.156 12.712C129.496 11.932 128.56 11.542 127.348 11.542C126.148 11.542 125.212 11.932 124.54 12.712C123.88 13.492 123.55 14.548 123.55 15.88C123.55 17.2 123.88 18.256 124.54 19.048C125.212 19.828 126.148 20.218 127.348 20.218ZM135.476 22V13.288H137.546V16.618H141.326V13.288H143.396V22H141.326V18.454H137.546V22H135.476ZM146.585 18.526C146.597 18.19 146.609 17.794 146.621 17.338C146.633 16.87 146.639 16.396 146.639 15.916C146.651 15.424 146.657 14.95 146.657 14.494C146.669 14.026 146.675 13.624 146.675 13.288H153.407V22H151.337V15.124H148.565C148.565 15.424 148.559 15.748 148.547 16.096C148.547 16.444 148.541 16.786 148.529 17.122C148.517 17.458 148.505 17.782 148.493 18.094C148.493 18.406 148.493 18.676 148.493 18.904C148.457 20.044 148.241 20.848 147.845 21.316C147.449 21.772 146.765 22 145.793 22H144.857V20.164H145.379C145.811 20.164 146.117 20.044 146.297 19.804C146.477 19.564 146.573 19.138 146.585 18.526ZM161.069 22V21.01C160.793 21.382 160.427 21.67 159.971 21.874C159.527 22.078 159.017 22.18 158.441 22.18C157.565 22.18 156.845 21.952 156.281 21.496C155.717 21.04 155.435 20.404 155.435 19.588C155.435 18.688 155.729 18.034 156.317 17.626C156.917 17.206 157.721 16.972 158.729 16.924C159.137 16.9 159.527 16.894 159.899 16.906C160.271 16.906 160.631 16.912 160.979 16.924V16.24C160.979 15.736 160.829 15.37 160.529 15.142C160.229 14.914 159.839 14.8 159.359 14.8C158.879 14.8 158.501 14.92 158.225 15.16C157.949 15.4 157.751 15.724 157.631 16.132L155.723 15.808C155.879 15.028 156.269 14.386 156.893 13.882C157.517 13.366 158.351 13.108 159.395 13.108C160.427 13.108 161.285 13.348 161.969 13.828C162.653 14.296 162.995 15.106 162.995 16.258V22H161.069ZM160.979 18.31C160.691 18.298 160.373 18.298 160.025 18.31C159.677 18.31 159.335 18.316 158.999 18.328C158.531 18.34 158.159 18.442 157.883 18.634C157.619 18.826 157.487 19.102 157.487 19.462C157.487 19.822 157.613 20.104 157.865 20.308C158.117 20.5 158.453 20.596 158.873 20.596C159.485 20.596 159.989 20.452 160.385 20.164C160.781 19.864 160.979 19.474 160.979 18.994V18.31ZM167.447 22H165.341V13.288H167.339V19.282L171.083 13.288H173.261V22H171.245V15.97L167.447 22ZM169.319 12.568C168.275 12.568 167.537 12.328 167.105 11.848C166.673 11.356 166.451 10.732 166.439 9.976H168.077C168.101 10.384 168.209 10.696 168.401 10.912C168.605 11.128 168.911 11.236 169.319 11.236C169.727 11.236 170.021 11.128 170.201 10.912C170.381 10.696 170.483 10.384 170.507 9.976H172.163C172.151 10.732 171.929 11.356 171.497 11.848C171.077 12.328 170.351 12.568 169.319 12.568ZM175.677 22V13.288H177.747V16.618H181.527V13.288H183.597V22H181.527V18.454H177.747V22H175.677Z" fill="#006CEE"/>
<path d="M37 3C37 1.34315 35.6569 0 34 0H3C1.34315 0 0 1.34315 0 3V29C0 30.6569 1.34315 32 3 32H34C35.6569 32 37 30.6569 37 29V3Z" fill="#006CEE"/>
</svg>
