<svg width="15" height="16" viewBox="0 0 15 16" fill="none" xmlns="http://www.w3.org/2000/svg">
<g clip-path="url(#clip0_173_15346)">
<path d="M11.5625 15.5H3.4375C2.52612 15.499 1.65236 15.1365 1.00792 14.4921C0.363476 13.8476 0.000992606 12.9739 0 12.0625L0 3.9375C0.000992606 3.02612 0.363476 2.15236 1.00792 1.50792C1.65236 0.863476 2.52612 0.500993 3.4375 0.5L11.5625 0.5C12.4739 0.500993 13.3476 0.863476 13.9921 1.50792C14.6365 2.15236 14.999 3.02612 15 3.9375V12.0625C14.999 12.9739 14.6365 13.8476 13.9921 14.4921C13.3476 15.1365 12.4739 15.499 11.5625 15.5ZM3.4375 2.375C3.0231 2.375 2.62567 2.53962 2.33265 2.83265C2.03962 3.12567 1.875 3.5231 1.875 3.9375V12.0625C1.875 12.4769 2.03962 12.8743 2.33265 13.1674C2.62567 13.4604 3.0231 13.625 3.4375 13.625H11.5625C11.9769 13.625 12.3743 13.4604 12.6674 13.1674C12.9604 12.8743 13.125 12.4769 13.125 12.0625V3.9375C13.125 3.5231 12.9604 3.12567 12.6674 2.83265C12.3743 2.53962 11.9769 2.375 11.5625 2.375H3.4375ZM11.875 4.875C11.875 4.54348 11.7433 4.22554 11.5089 3.99112C11.2745 3.7567 10.9565 3.625 10.625 3.625H4.375C4.04348 3.625 3.72554 3.7567 3.49112 3.99112C3.2567 4.22554 3.125 4.54348 3.125 4.875C3.125 5.20652 3.2567 5.52446 3.49112 5.75888C3.72554 5.9933 4.04348 6.125 4.375 6.125H10.625C10.9565 6.125 11.2745 5.9933 11.5089 5.75888C11.7433 5.52446 11.875 5.20652 11.875 4.875ZM4.0625 7.6875C3.87708 7.6875 3.69582 7.74248 3.54165 7.8455C3.38748 7.94851 3.26732 8.09493 3.19636 8.26623C3.12541 8.43754 3.10684 8.62604 3.14301 8.8079C3.17919 8.98975 3.26848 9.1568 3.39959 9.28791C3.5307 9.41902 3.69775 9.50831 3.8796 9.54449C4.06146 9.58066 4.24996 9.56209 4.42127 9.49114C4.59257 9.42018 4.73899 9.30002 4.842 9.14585C4.94502 8.99168 5 8.81042 5 8.625C5 8.37636 4.90123 8.1379 4.72541 7.96209C4.5496 7.78627 4.31114 7.6875 4.0625 7.6875ZM7.1875 7.6875C7.00208 7.6875 6.82082 7.74248 6.66665 7.8455C6.51248 7.94851 6.39232 8.09493 6.32136 8.26623C6.25041 8.43754 6.23184 8.62604 6.26801 8.8079C6.30419 8.98975 6.39348 9.1568 6.52459 9.28791C6.6557 9.41902 6.82275 9.50831 7.0046 9.54449C7.18646 9.58066 7.37496 9.56209 7.54627 9.49114C7.71757 9.42018 7.86399 9.30002 7.967 9.14585C8.07002 8.99168 8.125 8.81042 8.125 8.625C8.125 8.37636 8.02623 8.1379 7.85041 7.96209C7.6746 7.78627 7.43614 7.6875 7.1875 7.6875ZM4.0625 10.5C3.87708 10.5 3.69582 10.555 3.54165 10.658C3.38748 10.761 3.26732 10.9074 3.19636 11.0787C3.12541 11.25 3.10684 11.4385 3.14301 11.6204C3.17919 11.8023 3.26848 11.9693 3.39959 12.1004C3.5307 12.2315 3.69775 12.3208 3.8796 12.357C4.06146 12.3932 4.24996 12.3746 4.42127 12.3036C4.59257 12.2327 4.73899 12.1125 4.842 11.9583C4.94502 11.8042 5 11.6229 5 11.4375C5 11.1889 4.90123 10.9504 4.72541 10.7746C4.5496 10.5988 4.31114 10.5 4.0625 10.5ZM7.1875 10.5C7.00208 10.5 6.82082 10.555 6.66665 10.658C6.51248 10.761 6.39232 10.9074 6.32136 11.0787C6.25041 11.25 6.23184 11.4385 6.26801 11.6204C6.30419 11.8023 6.39348 11.9693 6.52459 12.1004C6.6557 12.2315 6.82275 12.3208 7.0046 12.357C7.18646 12.3932 7.37496 12.3746 7.54627 12.3036C7.71757 12.2327 7.86399 12.1125 7.967 11.9583C8.07002 11.8042 8.125 11.6229 8.125 11.4375C8.125 11.1889 8.02623 10.9504 7.85041 10.7746C7.6746 10.5988 7.43614 10.5 7.1875 10.5ZM11.875 11.4375C11.875 11.1889 11.7762 10.9504 11.6004 10.7746C11.4246 10.5988 11.1861 10.5 10.9375 10.5H10.3125C10.0639 10.5 9.8254 10.5988 9.64959 10.7746C9.47377 10.9504 9.375 11.1889 9.375 11.4375C9.375 11.6861 9.47377 11.9246 9.64959 12.1004C9.8254 12.2762 10.0639 12.375 10.3125 12.375H10.9375C11.1861 12.375 11.4246 12.2762 11.6004 12.1004C11.7762 11.9246 11.875 11.6861 11.875 11.4375ZM11.875 8.625C11.875 8.37636 11.7762 8.1379 11.6004 7.96209C11.4246 7.78627 11.1861 7.6875 10.9375 7.6875H10.3125C10.0639 7.6875 9.8254 7.78627 9.64959 7.96209C9.47377 8.1379 9.375 8.37636 9.375 8.625C9.375 8.87364 9.47377 9.1121 9.64959 9.28791C9.8254 9.46373 10.0639 9.5625 10.3125 9.5625H10.9375C11.1861 9.5625 11.4246 9.46373 11.6004 9.28791C11.7762 9.1121 11.875 8.87364 11.875 8.625Z" fill="#943DBD"/>
</g>
<defs>
<clipPath id="clip0_173_15346">
<rect width="15" height="15" fill="white" transform="translate(0 0.5)"/>
</clipPath>
</defs>
</svg>
