<svg width="12" height="12" viewBox="0 0 12 12" fill="none" xmlns="http://www.w3.org/2000/svg">
<path d="M12 4H0V3.5C0 2.1215 1.1215 1 2.5 1H3V0.5C3 0.224 3.2235 0 3.5 0C3.7765 0 4 0.224 4 0.5V1H8V0.5C8 0.224 8.2235 0 8.5 0C8.7765 0 9 0.224 9 0.5V1H9.5C10.8785 1 12 2.1215 12 3.5V4ZM5 11.2725C5 10.8265 5.0935 10.396 5.2675 10H3C2.7235 10 2.5 9.776 2.5 9.5C2.5 9.224 2.7235 9 3 9C3 9 5.011 9 5.96 9.0005L6.9605 8H3C2.7235 8 2.5 7.776 2.5 7.5C2.5 7.224 2.7235 7 3 7H7.961L9.3315 5.6295C9.7375 5.2235 10.277 5 10.851 5H0V9.5C0 10.8785 1.1215 12 2.5 12H5V11.2725ZM10.0385 6.3365C10.487 5.888 11.215 5.888 11.6635 6.3365C12.112 6.785 12.112 7.513 11.6635 7.9615L8.26 11.365C7.8535 11.7715 7.3025 12 6.7275 12H6V11.2725C6 10.6975 6.2285 10.1465 6.635 9.74L10.0385 6.3365Z" fill="#7A7FAA"/>
</svg>
