<svg width="15" height="16" viewBox="0 0 15 16" fill="none" xmlns="http://www.w3.org/2000/svg">
<g clip-path="url(#clip0_335_33261)">
<path d="M8.43715 7.0625C8.43715 7.58 8.01715 8 7.49965 8C6.98215 8 6.56215 7.58 6.56215 7.0625C6.56215 6.545 6.98215 6.125 7.49965 6.125C8.01715 6.125 8.43715 6.545 8.43715 7.0625ZM10.6246 6.125C10.1071 6.125 9.68715 6.545 9.68715 7.0625C9.68715 7.58 10.1071 8 10.6246 8C11.1421 8 11.5621 7.58 11.5621 7.0625C11.5621 6.545 11.1421 6.125 10.6246 6.125ZM4.37465 6.125C3.85715 6.125 3.43715 6.545 3.43715 7.0625C3.43715 7.58 3.85715 8 4.37465 8C4.89215 8 5.31215 7.58 5.31215 7.0625C5.31215 6.545 4.89215 6.125 4.37465 6.125ZM14.9997 3V10.5C14.9997 11.8787 13.8784 13 12.4996 13H10.7171L8.31215 14.9875C8.08652 15.1887 7.79715 15.29 7.50465 15.29C7.20715 15.29 6.90777 15.185 6.66902 14.9731L4.3259 13H2.49902C1.12027 13 -0.000976562 11.8787 -0.000976562 10.5V3C-0.000351562 1.62125 1.1209 0.5 2.49965 0.5H12.4996C13.8784 0.5 14.9997 1.62125 14.9997 3ZM13.7496 3C13.7496 2.31062 13.189 1.75 12.4996 1.75H2.49965C1.81027 1.75 1.24965 2.31062 1.24965 3V10.5C1.24965 11.1894 1.81027 11.75 2.49965 11.75H4.55465C4.70152 11.75 4.84465 11.8019 4.95777 11.8969L7.48777 14.0281L10.0946 11.8931C10.2065 11.8006 10.3471 11.75 10.4928 11.75H12.5003C13.1896 11.75 13.7503 11.1894 13.7503 10.5L13.7496 3Z" fill="#006CEE"/>
</g>
<defs>
<clipPath id="clip0_335_33261">
<rect width="15" height="15" fill="white" transform="translate(0 0.5)"/>
</clipPath>
</defs>
</svg>
