<svg width="20" height="20" viewBox="0 0 20 20" fill="none" xmlns="http://www.w3.org/2000/svg">
<path d="M9.16651 10.832V5.83203C9.16651 5.3737 9.54151 4.9987 9.99984 4.9987C10.4582 4.9987 10.8332 5.3737 10.8332 5.83203V10.832C10.8332 11.2904 10.4582 11.6654 9.99984 11.6654C9.54151 11.6654 9.16651 11.2904 9.16651 10.832ZM9.99984 12.4987C9.30817 12.4987 8.74984 13.057 8.74984 13.7487C8.74984 14.4404 9.30817 14.9987 9.99984 14.9987C10.6915 14.9987 11.2498 14.4404 11.2498 13.7487C11.2498 13.057 10.6915 12.4987 9.99984 12.4987ZM19.6498 16.5654C19.0665 17.6904 17.8415 18.332 16.3082 18.332H3.69984C2.15817 18.332 0.941505 17.6904 0.358172 16.5654C-0.233495 15.432 -0.0668279 13.982 0.774839 12.7654L7.47484 2.16536C8.06651 1.31536 8.99984 0.832031 9.99984 0.832031C10.9998 0.832031 11.9332 1.31536 12.4998 2.14036L19.2332 12.782C20.0748 13.9987 20.2332 15.4404 19.6415 16.5654H19.6498ZM17.8582 13.7154C17.8582 13.7154 17.8415 13.6987 17.8415 13.682L11.1165 3.05703C10.8748 2.71536 10.4582 2.4987 9.99984 2.4987C9.54151 2.4987 9.12484 2.71536 8.86651 3.09036L2.15817 13.682C1.64151 14.4154 1.52484 15.2154 1.82484 15.7904C2.11651 16.357 2.78317 16.6654 3.69151 16.6654H16.2915C17.1998 16.6654 17.8665 16.357 18.1582 15.7904C18.4582 15.2154 18.3415 14.4154 17.8498 13.7154H17.8582Z" fill="#FF4848"/>
</svg>
