<svg width="12" height="13" viewBox="0 0 12 13" fill="none" xmlns="http://www.w3.org/2000/svg">
<path d="M6 10.625C8.27817 10.625 10.125 8.77817 10.125 6.5C10.125 4.22183 8.27817 2.375 6 2.375C3.72183 2.375 1.875 4.22183 1.875 6.5C1.875 8.77817 3.72183 10.625 6 10.625Z" stroke="#2683F2" stroke-width="1.5" stroke-linecap="round" stroke-linejoin="round"/>
<path d="M6 1.4375V3.3125" stroke="#2683F2" stroke-width="1.5" stroke-linecap="round" stroke-linejoin="round"/>
<path d="M0.9375 6.5H2.8125" stroke="#2683F2" stroke-width="1.5" stroke-linecap="round" stroke-linejoin="round"/>
<path d="M6 11.5625V9.6875" stroke="#2683F2" stroke-width="1.5" stroke-linecap="round" stroke-linejoin="round"/>
<path d="M11.0625 6.5H9.1875" stroke="#2683F2" stroke-width="1.5" stroke-linecap="round" stroke-linejoin="round"/>
<path d="M6 8C6.82843 8 7.5 7.32843 7.5 6.5C7.5 5.67157 6.82843 5 6 5C5.17157 5 4.5 5.67157 4.5 6.5C4.5 7.32843 5.17157 8 6 8Z" stroke="#2683F2" stroke-width="1.5" stroke-linecap="round" stroke-linejoin="round"/>
</svg>
