<svg width="15" height="16" viewBox="0 0 15 16" fill="none" xmlns="http://www.w3.org/2000/svg">
<g clip-path="url(#clip0_173_15384)">
<path d="M10 14.875C10 15.22 9.72062 15.5 9.375 15.5H3.75C2.02688 15.5 0.625 14.0981 0.625 12.375V3.625C0.625 1.90188 2.02688 0.5 3.75 0.5H6.57188C7.74 0.5 8.83875 0.955 9.66562 1.78125L11.8431 3.96C12.0125 4.12937 12.17 4.315 12.3106 4.51188C12.5113 4.7925 12.4462 5.18313 12.1656 5.38375C11.885 5.58375 11.4937 5.51937 11.2937 5.23812C11.1931 5.0975 11.0806 4.96438 10.96 4.84438L8.78187 2.66562C8.58312 2.46687 8.3625 2.29875 8.125 2.1625V4.875C8.125 5.21938 8.405 5.5 8.75 5.5H10.625C10.9706 5.5 11.25 5.78 11.25 6.125C11.25 6.47 10.9706 6.75 10.625 6.75H8.75C7.71625 6.75 6.875 5.90875 6.875 4.875V1.76437C6.775 1.755 6.67375 1.75 6.57188 1.75H3.75C2.71625 1.75 1.875 2.59125 1.875 3.625V12.375C1.875 13.4087 2.71625 14.25 3.75 14.25H9.375C9.72062 14.25 10 14.53 10 14.875ZM13.5531 10.6669L11.6525 10.35C11.4194 10.3112 11.25 10.1112 11.25 9.875C11.25 9.53063 11.53 9.25 11.875 9.25H13.2925C13.515 9.25 13.7225 9.37 13.8344 9.5625C14.0063 9.86125 14.3875 9.96313 14.6881 9.79062C14.9869 9.6175 15.0894 9.23562 14.9156 8.93687C14.5819 8.35875 13.9594 7.99937 13.2919 7.99937H13.1244V7.37437C13.1244 7.02937 12.845 6.74937 12.4994 6.74937C12.1538 6.74937 11.8744 7.02937 11.8744 7.37437V7.99937C10.8406 7.99937 9.99937 8.84062 9.99937 9.87437C9.99937 10.7244 10.6081 11.4431 11.4462 11.5825L13.3469 11.8994C13.58 11.9381 13.7494 12.1381 13.7494 12.3744C13.7494 12.7188 13.4694 12.9994 13.1244 12.9994H11.7069C11.4844 12.9994 11.2769 12.8794 11.165 12.6869C10.9931 12.3875 10.6112 12.2856 10.3112 12.4588C10.0125 12.6319 9.91 13.0138 10.0838 13.3125C10.4175 13.8906 11.04 14.2494 11.7075 14.2494H11.875V14.8744C11.875 15.2194 12.1544 15.4994 12.5 15.4994C12.8456 15.4994 13.125 15.2194 13.125 14.8744V14.2494C14.1587 14.2494 15 13.4081 15 12.3744C15 11.5244 14.3912 10.8063 13.5531 10.6669ZM4.6875 9.875H8.125C8.47062 9.875 8.75 9.595 8.75 9.25C8.75 8.905 8.47062 8.625 8.125 8.625H4.6875C3.82625 8.625 3.125 9.32625 3.125 10.1875V11.4375C3.125 12.2987 3.82625 13 4.6875 13H8.125C8.47062 13 8.75 12.72 8.75 12.375C8.75 12.03 8.47062 11.75 8.125 11.75H4.6875C4.515 11.75 4.375 11.61 4.375 11.4375V10.1875C4.375 10.015 4.515 9.875 4.6875 9.875ZM3.75 7.375H5C5.345 7.375 5.625 7.095 5.625 6.75C5.625 6.405 5.345 6.125 5 6.125H3.75C3.405 6.125 3.125 6.405 3.125 6.75C3.125 7.095 3.405 7.375 3.75 7.375ZM3.75 4.875H5C5.345 4.875 5.625 4.595 5.625 4.25C5.625 3.905 5.345 3.625 5 3.625H3.75C3.405 3.625 3.125 3.905 3.125 4.25C3.125 4.595 3.405 4.875 3.75 4.875Z" fill="#FC9393"/>
</g>
<defs>
<clipPath id="clip0_173_15384">
<rect width="15" height="15" fill="white" transform="translate(0 0.5)"/>
</clipPath>
</defs>
</svg>
