<svg width="12" height="12" viewBox="0 0 12 12" fill="none" xmlns="http://www.w3.org/2000/svg">
<g clip-path="url(#clip0_577_28889)">
<path d="M11.9999 10.25C11.9999 11.215 11.2149 12 10.2499 12H1.74993C-0.225568 11.9955 -0.652568 9.194 1.20743 8.595C3.46943 11.77 8.53143 11.769 10.7924 8.595C11.4909 8.825 11.9999 9.476 11.9999 10.25ZM10.9999 5C10.9999 7.757 8.75693 10 5.99993 10C-0.624068 9.7485 -0.622068 0.2505 5.99993 0C8.75693 0 10.9999 2.243 10.9999 5ZM7.99993 6C7.99993 5.3205 7.51293 4.745 6.84243 4.6335L5.32193 4.3805C4.77843 4.275 5.00143 3.4675 5.49993 3.5H6.63393C6.81193 3.5 6.97793 3.5955 7.06743 3.7505C7.20593 3.9895 7.51243 4.072 7.75043 3.9325C7.98993 3.7945 8.07143 3.4885 7.93293 3.2495C7.66543 2.787 7.16743 2.5 6.63393 2.5H6.49993V2C6.49693 1.346 5.50243 1.3465 5.49993 2V2.5C3.78243 2.4905 3.40793 5.0415 5.15743 5.3665L6.67793 5.6195C7.22143 5.725 6.99843 6.5325 6.49993 6.5H5.36593C5.18793 6.5 5.02193 6.4045 4.93243 6.2495C4.79393 6.0105 4.48743 5.928 4.24943 6.0675C4.00993 6.2055 3.92843 6.5115 4.06693 6.7505C4.33443 7.213 4.83243 7.5 5.36593 7.5H5.49993V8C5.50293 8.654 6.49743 8.6535 6.49993 8V7.5C7.32693 7.5 7.99993 6.827 7.99993 6Z" fill="white"/>
</g>
<defs>
<clipPath id="clip0_577_28889">
<rect width="12" height="12" fill="white"/>
</clipPath>
</defs>
</svg>
