<svg width="14" height="14" viewBox="0 0 14 14" fill="none" xmlns="http://www.w3.org/2000/svg">
<g clip-path="url(#clip0_534_24179)">
<path d="M11.6667 12.8325V2.91584C11.6667 1.95101 10.8815 1.16584 9.91667 1.16584H9.2225C9.1175 0.870092 8.9425 0.601175 8.69283 0.396425C8.28625 0.0627585 7.75717 -0.0679081 7.24033 0.0335919L3.73975 0.733592C2.92483 0.896925 2.33333 1.61909 2.33333 2.44918V12.8325H0V13.9992H14V12.8325H11.6667ZM7.29167 7.72834C6.80867 7.72834 6.41667 7.33634 6.41667 6.85334C6.41667 6.37034 6.80867 5.97834 7.29167 5.97834C7.77467 5.97834 8.16667 6.37034 8.16667 6.85334C8.16667 7.33634 7.77467 7.72834 7.29167 7.72834ZM10.5 12.8325H9.33333V2.33251H9.91667C10.2381 2.33251 10.5 2.59384 10.5 2.91584V12.8325Z" fill="#7A7FAA"/>
</g>
<defs>
<clipPath id="clip0_534_24179">
<rect width="14" height="14" fill="white"/>
</clipPath>
</defs>
</svg>
