<svg width="12" height="14" viewBox="0 0 12 14" fill="none" xmlns="http://www.w3.org/2000/svg">
<g clip-path="url(#clip0_66_23816)">
<path d="M6.5 4C7.32843 4 8 3.32843 8 2.5C8 1.67157 7.32843 1 6.5 1C5.67157 1 5 1.67157 5 2.5C5 3.32843 5.67157 4 6.5 4Z" fill="#3D3D3D"/>
<path d="M6.5 8.5C7.32843 8.5 8 7.82843 8 7C8 6.17157 7.32843 5.5 6.5 5.5C5.67157 5.5 5 6.17157 5 7C5 7.82843 5.67157 8.5 6.5 8.5Z" fill="#3D3D3D"/>
<path d="M6.5 13.5C7.32843 13.5 8 12.8284 8 12C8 11.1716 7.32843 10.5 6.5 10.5C5.67157 10.5 5 11.1716 5 12C5 12.8284 5.67157 13.5 6.5 13.5Z" fill="#3D3D3D"/>
</g>
<defs>
<clipPath id="clip0_66_23816">
<rect width="12" height="13" fill="white" transform="translate(0 0.5)"/>
</clipPath>
</defs>
</svg>
