<svg width="21" height="20" viewBox="0 0 21 20" fill="none" xmlns="http://www.w3.org/2000/svg">
<path d="M12.0625 13.4375H3.625" stroke="white" stroke-width="1.5" stroke-linecap="round" stroke-linejoin="round"/>
<path d="M17.375 13.4375H15.1875" stroke="white" stroke-width="1.5" stroke-linecap="round" stroke-linejoin="round"/>
<path d="M13.625 15C14.4879 15 15.1875 14.3004 15.1875 13.4375C15.1875 12.5746 14.4879 11.875 13.625 11.875C12.7621 11.875 12.0625 12.5746 12.0625 13.4375C12.0625 14.3004 12.7621 15 13.625 15Z" stroke="white" stroke-width="1.5" stroke-linecap="round" stroke-linejoin="round"/>
<path d="M7.0625 6.5625H3.625" stroke="white" stroke-width="1.5" stroke-linecap="round" stroke-linejoin="round"/>
<path d="M17.375 6.5625H10.1875" stroke="white" stroke-width="1.5" stroke-linecap="round" stroke-linejoin="round"/>
<path d="M8.625 8.125C9.48794 8.125 10.1875 7.42544 10.1875 6.5625C10.1875 5.69956 9.48794 5 8.625 5C7.76206 5 7.0625 5.69956 7.0625 6.5625C7.0625 7.42544 7.76206 8.125 8.625 8.125Z" stroke="white" stroke-width="1.5" stroke-linecap="round" stroke-linejoin="round"/>
</svg>
