<svg width="15" height="15" viewBox="0 0 15 15" fill="none" xmlns="http://www.w3.org/2000/svg">
<g clip-path="url(#clip0_623_24247)">
<path d="M5 4.375H14.0625C14.3111 4.375 14.5496 4.27623 14.7254 4.10041C14.9012 3.9246 15 3.68614 15 3.4375C15 3.18886 14.9012 2.9504 14.7254 2.77459C14.5496 2.59877 14.3111 2.5 14.0625 2.5H5C4.75136 2.5 4.5129 2.59877 4.33709 2.77459C4.16127 2.9504 4.0625 3.18886 4.0625 3.4375C4.0625 3.68614 4.16127 3.9246 4.33709 4.10041C4.5129 4.27623 4.75136 4.375 5 4.375V4.375Z" fill="#7A7FAA"/>
<path d="M14.0625 6.875H5C4.75136 6.875 4.5129 6.97377 4.33709 7.14959C4.16127 7.3254 4.0625 7.56386 4.0625 7.8125C4.0625 8.06114 4.16127 8.2996 4.33709 8.47541C4.5129 8.65123 4.75136 8.75 5 8.75H14.0625C14.3111 8.75 14.5496 8.65123 14.7254 8.47541C14.9012 8.2996 15 8.06114 15 7.8125C15 7.56386 14.9012 7.3254 14.7254 7.14959C14.5496 6.97377 14.3111 6.875 14.0625 6.875Z" fill="#7A7FAA"/>
<path d="M14.0625 11.25H5C4.75136 11.25 4.5129 11.3488 4.33709 11.5246C4.16127 11.7004 4.0625 11.9389 4.0625 12.1875C4.0625 12.4361 4.16127 12.6746 4.33709 12.8504C4.5129 13.0262 4.75136 13.125 5 13.125H14.0625C14.3111 13.125 14.5496 13.0262 14.7254 12.8504C14.9012 12.6746 15 12.4361 15 12.1875C15 11.9389 14.9012 11.7004 14.7254 11.5246C14.5496 11.3488 14.3111 11.25 14.0625 11.25Z" fill="#7A7FAA"/>
<path d="M1.5625 5C2.42544 5 3.125 4.30044 3.125 3.4375C3.125 2.57456 2.42544 1.875 1.5625 1.875C0.699555 1.875 0 2.57456 0 3.4375C0 4.30044 0.699555 5 1.5625 5Z" fill="#7A7FAA"/>
<path d="M1.5625 9.0625C2.42544 9.0625 3.125 8.36294 3.125 7.5C3.125 6.63706 2.42544 5.9375 1.5625 5.9375C0.699555 5.9375 0 6.63706 0 7.5C0 8.36294 0.699555 9.0625 1.5625 9.0625Z" fill="#7A7FAA"/>
<path d="M1.5625 13.4375C2.42544 13.4375 3.125 12.7379 3.125 11.875C3.125 11.0121 2.42544 10.3125 1.5625 10.3125C0.699555 10.3125 0 11.0121 0 11.875C0 12.7379 0.699555 13.4375 1.5625 13.4375Z" fill="#7A7FAA"/>
</g>
<defs>
<clipPath id="clip0_623_24247">
<rect width="15" height="15" fill="white"/>
</clipPath>
</defs>
</svg>
