<svg width="19" height="18" viewBox="0 0 19 18" fill="none" xmlns="http://www.w3.org/2000/svg">
<path d="M9.50004 9C10.0934 9 10.6734 8.82405 11.1668 8.49441C11.6601 8.16476 12.0446 7.69623 12.2717 7.14805C12.4987 6.59987 12.5582 5.99667 12.4424 5.41473C12.3266 4.83279 12.0409 4.29824 11.6214 3.87868C11.2018 3.45912 10.6673 3.1734 10.0853 3.05764C9.50337 2.94189 8.90017 3.0013 8.35199 3.22836C7.80381 3.45542 7.33528 3.83994 7.00563 4.33329C6.67599 4.82664 6.50004 5.40666 6.50004 6C6.50004 6.79565 6.81611 7.55871 7.37872 8.12132C7.94133 8.68393 8.70439 9 9.50004 9ZM9.50004 4.5C9.79671 4.5 10.0867 4.58797 10.3334 4.7528C10.5801 4.91762 10.7723 5.15189 10.8859 5.42597C10.9994 5.70006 11.0291 6.00166 10.9712 6.29264C10.9133 6.58361 10.7705 6.85088 10.5607 7.06066C10.3509 7.27044 10.0836 7.4133 9.79268 7.47118C9.50171 7.52906 9.20011 7.49935 8.92602 7.38582C8.65193 7.27229 8.41766 7.08003 8.25284 6.83336C8.08802 6.58668 8.00004 6.29667 8.00004 6C8.00004 5.60218 8.15808 5.22064 8.43938 4.93934C8.72069 4.65804 9.10222 4.5 9.50004 4.5ZM15.995 6.86775L15.4558 6.6885C15.5528 5.84844 15.4712 4.99736 15.2162 4.19106C14.9613 3.38477 14.5388 2.64147 13.9764 2.00992C13.414 1.37836 12.7245 0.87282 11.9531 0.526435C11.1816 0.18005 10.3457 0.000650611 9.50004 0C8.64336 0.000330727 7.7967 0.184271 7.0171 0.539426C6.23751 0.894582 5.54309 1.4127 4.98063 2.05888C4.41818 2.70506 4.00075 3.46428 3.75647 4.2854C3.5122 5.10652 3.44675 5.97045 3.56454 6.819C2.84682 6.95282 2.18314 7.29144 1.65354 7.794C1.28692 8.14256 0.995469 8.56242 0.797101 9.02777C0.598732 9.49313 0.497641 9.99414 0.500042 10.5V13.5563C0.501618 14.3672 0.765386 15.156 1.25198 15.8048C1.73858 16.4536 2.42193 16.9277 3.20004 17.1562L5.35254 17.8312C5.71409 17.9438 6.09064 18.0007 6.46929 18C6.81278 17.9996 7.15464 17.9526 7.48554 17.8605L11.8205 16.578C12.2067 16.4726 12.6141 16.4726 13.0003 16.578L14.7905 17.178C15.2318 17.2854 15.6916 17.2912 16.1354 17.1951C16.5792 17.0989 16.9954 16.9032 17.3526 16.6228C17.7098 16.3424 17.9986 15.9845 18.1974 15.5762C18.3962 15.1679 18.4996 14.7199 18.5 14.2657V10.404C18.4983 9.62806 18.2567 8.87163 17.8082 8.23841C17.3598 7.60519 16.7264 7.12616 15.995 6.867V6.86775ZM6.31854 2.8215C6.73573 2.40262 7.23154 2.07024 7.7775 1.84345C8.32347 1.61666 8.90885 1.49991 9.50004 1.49991C10.0912 1.49991 10.6766 1.61666 11.2226 1.84345C11.7685 2.07024 12.2643 2.40262 12.6815 2.8215C13.5232 3.66836 13.9962 4.81336 13.9978 6.0073C13.9993 7.20124 13.5292 8.34747 12.6898 9.1965L10.025 11.7878C9.88596 11.9241 9.69895 12.0005 9.50417 12.0005C9.30939 12.0005 9.12237 11.9241 8.98329 11.7878L6.31854 9.20775C5.47514 8.35904 5.00177 7.21113 5.00177 6.01462C5.00177 4.81812 5.47514 3.67021 6.31854 2.8215V2.8215ZM17 14.2657C17.0005 14.4929 16.9491 14.7172 16.8498 14.9215C16.7505 15.1258 16.6059 15.3048 16.427 15.4448C16.258 15.5807 16.0611 15.6777 15.8503 15.7289C15.6396 15.7801 15.4201 15.7842 15.2075 15.741L13.4488 15.15C12.7835 14.9589 12.0785 14.9547 11.411 15.138L7.07304 16.419C6.65625 16.534 6.21516 16.5264 5.80254 16.3973L3.63204 15.7222C3.16228 15.5864 2.74926 15.3018 2.45499 14.9113C2.16072 14.5207 2.00108 14.0453 2.00004 13.5563V10.5C1.99836 10.1968 2.0587 9.89653 2.17736 9.61755C2.29602 9.33857 2.47049 9.08681 2.69004 8.87775C3.03373 8.5502 3.47155 8.33876 3.94179 8.27325C4.24412 9.02263 4.69433 9.70343 5.26554 10.275L7.94079 12.8647C8.35892 13.2742 8.92084 13.5035 9.50604 13.5035C10.0912 13.5035 10.6532 13.2742 11.0713 12.8647L13.7435 10.2675C14.3419 9.66678 14.8054 8.94553 15.1033 8.15175L15.506 8.28525C15.9428 8.44176 16.3207 8.72922 16.588 9.1084C16.8554 9.48758 16.9993 9.94003 17 10.404V14.2657Z" fill="#006CEE"/>
</svg>
