<svg width="20" height="20" viewBox="0 0 20 20" fill="none" xmlns="http://www.w3.org/2000/svg">
<path fill-rule="evenodd" clip-rule="evenodd" d="M9.0625 3.25C5.85234 3.25 3.25 5.85234 3.25 9.0625C3.25 12.2727 5.85234 14.875 9.0625 14.875C12.2727 14.875 14.875 12.2727 14.875 9.0625C14.875 5.85234 12.2727 3.25 9.0625 3.25ZM1.75 9.0625C1.75 5.02392 5.02392 1.75 9.0625 1.75C13.1011 1.75 16.375 5.02392 16.375 9.0625C16.375 13.1011 13.1011 16.375 9.0625 16.375C5.02392 16.375 1.75 13.1011 1.75 9.0625Z" fill="#7A7FAA"/>
<path fill-rule="evenodd" clip-rule="evenodd" d="M13.1728 13.1728C13.4657 12.8799 13.9406 12.8799 14.2335 13.1728L18.0303 16.9697C18.3232 17.2626 18.3232 17.7374 18.0303 18.0303C17.7374 18.3232 17.2626 18.3232 16.9697 18.0303L13.1728 14.2335C12.8799 13.9406 12.8799 13.4657 13.1728 13.1728Z" fill="#7A7FAA"/>
</svg>
