<svg width="16" height="17" viewBox="0 0 16 17" fill="none" xmlns="http://www.w3.org/2000/svg">
<path d="M14.6749 9.90188L13.7437 8.66438C13.7499 8.55188 13.7437 8.43313 13.7437 8.34563L14.6749 7.10188C14.7212 7.04136 14.7527 6.97081 14.7668 6.89592C14.7809 6.82102 14.7773 6.74386 14.7562 6.67063C14.5987 6.09442 14.3698 5.54013 14.0749 5.02063C14.0369 4.95464 13.9846 4.89796 13.9219 4.85472C13.8592 4.81147 13.7876 4.78275 13.7124 4.77063L12.1812 4.55188L11.9499 4.32063L11.7312 2.78938C11.719 2.71501 11.6909 2.64413 11.6488 2.58158C11.6067 2.51903 11.5517 2.46627 11.4874 2.42688C10.9652 2.13308 10.409 1.9043 9.83118 1.74563C9.75795 1.72453 9.68079 1.72088 9.6059 1.73499C9.531 1.7491 9.46046 1.78058 9.39993 1.82688L8.16243 2.75188H7.83743L6.59993 1.82688C6.5394 1.78058 6.46886 1.7491 6.39397 1.73499C6.31907 1.72088 6.24191 1.72453 6.16868 1.74563C5.59247 1.90315 5.03818 2.132 4.51868 2.42688C4.45269 2.46493 4.39601 2.51721 4.35276 2.57992C4.30952 2.64262 4.28079 2.71418 4.26868 2.78938L4.04993 4.32063L3.81868 4.55188L2.28743 4.77063C2.21223 4.78275 2.14067 4.81147 2.07796 4.85472C2.01526 4.89796 1.96298 4.95464 1.92493 5.02063C1.63005 5.54013 1.40119 6.09442 1.24368 6.67063C1.22257 6.74386 1.21893 6.82102 1.23304 6.89592C1.24715 6.97081 1.27862 7.04136 1.32493 7.10188L2.25618 8.33938V8.65813L1.32493 9.90188C1.27862 9.96241 1.24715 10.033 1.23304 10.1079C1.21893 10.1827 1.22257 10.2599 1.24368 10.3331C1.40119 10.9093 1.63005 11.4636 1.92493 11.9831C1.96298 12.0491 2.01526 12.1058 2.07796 12.1491C2.14067 12.1923 2.21223 12.221 2.28743 12.2331L3.81868 12.4519L4.04993 12.6831L4.26868 14.2144C4.28079 14.2896 4.30952 14.3611 4.35276 14.4239C4.39601 14.4866 4.45269 14.5388 4.51868 14.5769C5.03818 14.8718 5.59247 15.1006 6.16868 15.2581C6.21134 15.2705 6.25552 15.2768 6.29993 15.2769C6.40834 15.2783 6.51405 15.2431 6.59993 15.1769L7.83743 14.2519H8.16243L9.39993 15.1769C9.46046 15.2232 9.531 15.2547 9.6059 15.2688C9.68079 15.2829 9.75795 15.2792 9.83118 15.2581C10.4078 15.1018 10.9622 14.8728 11.4812 14.5769C11.5472 14.5388 11.6039 14.4866 11.6471 14.4239C11.6903 14.3611 11.7191 14.2896 11.7312 14.2144L11.9499 12.6769C12.0249 12.6019 12.1124 12.5206 12.1749 12.4519L13.7124 12.2331C13.7876 12.221 13.8592 12.1923 13.9219 12.1491C13.9846 12.1058 14.0369 12.0491 14.0749 11.9831C14.3698 11.4636 14.5987 10.9093 14.7562 10.3331C14.7773 10.2599 14.7809 10.1827 14.7668 10.1079C14.7527 10.033 14.7212 9.96241 14.6749 9.90188ZM7.99993 11.2519C7.45603 11.2519 6.92435 11.0906 6.47211 10.7884C6.01988 10.4863 5.6674 10.0568 5.45926 9.55426C5.25112 9.05177 5.19666 8.49883 5.30277 7.96539C5.40888 7.43194 5.67079 6.94194 6.05539 6.55734C6.43998 6.17275 6.92999 5.91083 7.46343 5.80473C7.99688 5.69862 8.54981 5.75308 9.05231 5.96122C9.55481 6.16936 9.9843 6.52183 10.2865 6.97407C10.5886 7.4263 10.7499 7.95799 10.7499 8.50188C10.7499 9.23123 10.4602 9.9307 9.94448 10.4464C9.42875 10.9622 8.72928 11.2519 7.99993 11.2519Z" fill="white"/>
</svg>
