<svg width="20" height="20" viewBox="0 0 20 20" fill="none" xmlns="http://www.w3.org/2000/svg">
<g clip-path="url(#clip0_739_25353)">
<path d="M0.833156 20.0001C1.05415 20 1.26608 19.9122 1.42232 19.7559L6.93816 14.2401L7.97816 15.3167C8.76201 16.1451 9.84237 16.6287 10.9823 16.6617C11.3623 16.6629 11.7397 16.5989 12.0982 16.4726C12.6519 16.2819 13.1385 15.9346 13.4987 15.4727C13.8589 15.0109 14.0773 14.4544 14.1273 13.8709C14.2177 13.0258 14.1551 12.1713 13.9423 11.3484L13.764 10.4801C13.7302 10.3412 13.7327 10.196 13.7712 10.0584C13.8097 9.92075 13.883 9.79535 13.984 9.69422L15.3065 8.37089C15.3587 8.31852 15.4292 8.28862 15.5032 8.28756C15.5291 8.28273 15.5559 8.28524 15.5805 8.29482C15.605 8.30439 15.6265 8.32063 15.6423 8.34172C16.0609 8.7856 16.624 9.06569 17.2305 9.13168C17.8371 9.19766 18.4473 9.04521 18.9515 8.70173C19.2474 8.4908 19.4937 8.21791 19.6734 7.90206C19.853 7.58622 19.9616 7.23501 19.9917 6.87289C20.0218 6.51078 19.9725 6.14646 19.8474 5.80531C19.7223 5.46416 19.5244 5.15439 19.2673 4.89756L15.1665 0.795058C14.7454 0.363475 14.186 0.0936283 13.5862 0.032696C12.9863 -0.0282362 12.3841 0.123624 11.8848 0.461725C11.5889 0.672585 11.3425 0.945423 11.1628 1.26123C10.983 1.57705 10.8743 1.92824 10.8442 2.29036C10.814 2.65248 10.8632 3.01682 10.9882 3.358C11.1133 3.69918 11.3112 4.009 11.5682 4.26589L11.6315 4.32922C11.6792 4.3773 11.706 4.44231 11.706 4.51006C11.706 4.57781 11.6792 4.64281 11.6315 4.69089L10.2982 6.02422C10.1959 6.12629 10.0688 6.20001 9.92943 6.23814C9.79005 6.27627 9.64315 6.27751 9.50316 6.24172L8.82232 6.06756C7.98487 5.84884 7.11481 5.78307 6.25399 5.87339C5.64346 5.93662 5.06372 6.17308 4.58313 6.5549C4.10254 6.93671 3.74113 7.44797 3.54149 8.02839C3.32363 8.62485 3.28067 9.27114 3.41767 9.89118C3.55467 10.5112 3.86593 11.0793 4.31482 11.5284L5.77982 13.0451L0.243989 18.5776C0.127481 18.6941 0.0481425 18.8426 0.0160029 19.0042C-0.0161367 19.1658 0.000365755 19.3334 0.0634241 19.4856C0.126482 19.6379 0.233265 19.768 0.370274 19.8596C0.507282 19.9511 0.668364 20 0.833156 20.0001ZM5.11232 8.58339C5.20623 8.29949 5.38042 8.0489 5.6138 7.86195C5.84719 7.675 6.12977 7.55972 6.42732 7.53006C6.61917 7.51009 6.81193 7.50008 7.00482 7.50006C7.47759 7.50008 7.94839 7.56086 8.40566 7.68089L9.09149 7.85589C9.51167 7.9622 9.95223 7.95782 10.3702 7.84317C10.7882 7.72852 11.1693 7.50753 11.4765 7.20172L12.8098 5.86839C13.1696 5.50755 13.3716 5.01878 13.3716 4.50922C13.3716 3.99967 13.1696 3.5109 12.8098 3.15006L12.7465 3.08672C12.6602 3.00064 12.5939 2.89668 12.5521 2.78217C12.5104 2.66766 12.4943 2.54539 12.5049 2.42398C12.5156 2.30256 12.5527 2.18496 12.6137 2.07946C12.6748 1.97397 12.7582 1.88314 12.8582 1.81339C13.036 1.70575 13.2455 1.66272 13.4513 1.69156C13.6572 1.7204 13.8468 1.81935 13.9882 1.97172L18.0915 6.07506C18.1778 6.16114 18.2441 6.2651 18.2859 6.37961C18.3276 6.49412 18.3437 6.61639 18.3331 6.73781C18.3224 6.85922 18.2853 6.97682 18.2242 7.08232C18.1632 7.18782 18.0798 7.27864 17.9798 7.34839C17.8001 7.45751 17.5879 7.50056 17.3798 7.47014C17.1718 7.43972 16.9808 7.33773 16.8398 7.18172C16.6684 7.00494 16.4632 6.8643 16.2365 6.76812C16.0098 6.67193 15.7661 6.62216 15.5198 6.62172C15.0003 6.62409 14.5021 6.82851 14.1307 7.19172L12.809 8.51422C12.5089 8.81454 12.2902 9.18635 12.1736 9.59458C12.0569 10.0028 12.0462 10.434 12.1423 10.8476L12.3248 11.7292C12.493 12.3721 12.5441 13.0399 12.4757 13.7009C12.4557 13.9704 12.357 14.2282 12.1919 14.4421C12.0267 14.6561 11.8022 14.8168 11.5465 14.9042C11.1202 15.0163 10.6709 15.0053 10.2506 14.8726C9.83023 14.7399 9.4561 14.4908 9.17149 14.1542L5.50482 10.3626C5.27619 10.1345 5.1177 9.84576 5.04813 9.53043C4.97857 9.2151 5.00085 8.88645 5.11232 8.58339Z" fill="#006CEE"/>
</g>
<defs>
<clipPath id="clip0_739_25353">
<rect width="20" height="20" fill="white"/>
</clipPath>
</defs>
</svg>
