<svg width="20" height="20" viewBox="0 0 20 20" fill="none" xmlns="http://www.w3.org/2000/svg">
<path fill-rule="evenodd" clip-rule="evenodd" d="M0 10C0 4.47715 4.47715 0 10 0C15.5228 0 20 4.47715 20 10C20 15.5228 15.5228 20 10 20C4.47715 20 0 15.5228 0 10Z" fill="#006CEE"/>
<path fill-rule="evenodd" clip-rule="evenodd" d="M10.6031 13.816C10.6031 13.816 10.8253 13.7917 10.939 13.6712C11.0432 13.5608 11.0396 13.3525 11.0396 13.3525C11.0396 13.3525 11.0257 12.3797 11.4838 12.236C11.9353 12.0948 12.515 13.1768 13.1302 13.5928C13.5949 13.9074 13.9477 13.8386 13.9477 13.8386L15.5917 13.816C15.5917 13.816 16.4513 13.7638 16.0437 13.0973C16.01 13.0426 15.806 12.604 14.8217 11.7031C13.7906 10.7599 13.929 10.9125 15.1703 9.28086C15.9264 8.28729 16.2285 7.6807 16.134 7.42133C16.0443 7.17324 15.4881 7.23912 15.4881 7.23912L13.6377 7.25039C13.6377 7.25039 13.5004 7.232 13.3987 7.29194C13.2994 7.3507 13.2349 7.48781 13.2349 7.48781C13.2349 7.48781 12.9424 8.25643 12.5517 8.9105C11.7276 10.2899 11.3983 10.3629 11.2635 10.2774C10.9499 10.0774 11.0281 9.47494 11.0281 9.04701C11.0281 7.70979 11.234 7.15246 10.6278 7.00823C10.4268 6.96016 10.2787 6.9287 9.76399 6.92336C9.10363 6.91683 8.545 6.92573 8.22837 7.07827C8.01768 7.17976 7.85514 7.40649 7.95447 7.41955C8.07667 7.43558 8.35358 7.49315 8.50046 7.6902C8.69008 7.94482 8.68346 8.5158 8.68346 8.5158C8.68346 8.5158 8.79241 10.0898 8.42882 10.2851C8.17961 10.4192 7.83769 10.1456 7.10268 8.89388C6.72645 8.25287 6.44232 7.54419 6.44232 7.54419C6.44232 7.54419 6.38754 7.41183 6.28942 7.34061C6.17083 7.25455 6.00529 7.22784 6.00529 7.22784L4.24694 7.23912C4.24694 7.23912 3.98267 7.24624 3.88576 7.3596C3.79968 7.45991 3.87914 7.66824 3.87914 7.66824C3.87914 7.66824 5.25584 10.8442 6.81494 12.445C8.24462 13.9122 9.86753 13.816 9.86753 13.816H10.6031Z" fill="white"/>
</svg>
